<svg width="18" height="19" viewBox="0 0 18 19" fill="none" xmlns="http://www.w3.org/2000/svg">
<path d="M11.625 9.125C11.625 10.5747 10.4497 11.75 9 11.75C7.55025 11.75 6.375 10.5747 6.375 9.125C6.375 7.67525 7.55025 6.5 9 6.5C10.4497 6.5 11.625 7.67525 11.625 9.125Z" stroke="currentColor" stroke-width="1.5"/>
<path d="M15.75 10.6996C15.895 10.6601 16.0454 10.6316 16.2005 10.6156C16.3653 10.5985 16.5 10.4659 16.5 10.3002V7.94993C16.5 7.78425 16.3648 7.6516 16.2 7.63449C14.3306 7.44037 13.1409 5.45252 13.909 3.7459C13.9777 3.59326 13.9299 3.40754 13.7843 3.3249L11.7081 2.14607C11.5655 2.0651 11.3853 2.11524 11.2885 2.24767C10.1634 3.788 7.83778 3.78794 6.71262 2.24758C6.61589 2.11516 6.4357 2.06502 6.29309 2.14599L4.21684 3.32482C4.07128 3.40747 4.02346 3.59319 4.09215 3.74583C4.86015 5.45248 3.66953 7.44037 1.79997 7.63449C1.63517 7.6516 1.5 7.78424 1.5 7.94993V10.3002C1.5 10.4659 1.63517 10.5985 1.79997 10.6156C3.66939 10.8097 4.85904 12.7976 4.09097 14.5042C4.02228 14.6568 4.07009 14.8425 4.21565 14.9252L6.29191 16.104C6.43452 16.185 6.61444 16.1353 6.71114 16.0028C7.27385 15.2321 8.13688 14.8467 9 14.8464" stroke="currentColor" stroke-width="1.5" stroke-linecap="round" stroke-linejoin="round"/>
<path d="M13.875 11.75L14.0684 12.2727C14.3221 12.9582 14.4489 13.301 14.699 13.551C14.949 13.8011 15.2917 13.9279 15.9772 14.1816L16.5 14.375L15.9772 14.5684C15.2917 14.8221 14.949 14.9489 14.699 15.199C14.4489 15.449 14.3221 15.7917 14.0684 16.4772L13.875 17L13.6816 16.4772C13.4279 15.7917 13.3011 15.449 13.051 15.199C12.801 14.9489 12.4582 14.8221 11.7727 14.5684L11.25 14.375L11.7727 14.1816C12.4582 13.9279 12.801 13.8011 13.051 13.551C13.3011 13.301 13.4279 12.9582 13.6816 12.2727L13.875 11.75Z" stroke="currentColor" stroke-width="1.5" stroke-linejoin="round"/>
</svg>
