<svg width="18" height="19" viewBox="0 0 18 19" fill="none" xmlns="http://www.w3.org/2000/svg">
<path d="M15.457 13.1265C14.9648 10.1649 13.4324 7.9596 12.1002 6.66425C11.7126 6.28731 11.5188 6.09885 11.0906 5.92443C10.6624 5.75 10.2944 5.75 9.55835 5.75H7.94165C7.20561 5.75 6.83757 5.75 6.40941 5.92443C5.98125 6.09885 5.78743 6.28731 5.39978 6.66425C4.06761 7.9596 2.53521 10.1649 2.04295 13.1265C1.6767 15.33 3.70945 17 5.98124 17H11.5188C13.7905 17 15.8233 15.33 15.457 13.1265Z" stroke="currentColor" stroke-width="1.5" stroke-linecap="round"/>
<path fill-rule="evenodd" clip-rule="evenodd" d="M9.30953 11.7233C9.27828 11.7256 9.11681 11.7353 8.75664 11.7353C8.47017 11.7353 8.26677 11.7267 8.19542 11.7233C7.08834 11.6746 6.26199 11.4819 6.26199 11.2511C6.26199 11.0204 7.08834 10.8279 8.19542 10.7785V11.5314C8.26782 11.5366 8.47512 11.5488 8.76159 11.5488C9.10536 11.5488 9.2775 11.5345 9.30849 11.5316V10.779C10.4132 10.8282 11.2377 11.0209 11.2377 11.2511C11.2377 11.4814 10.4135 11.6741 9.30849 11.723L9.30953 11.7233ZM9.30953 10.7011V10.0274H10.3513C10.6274 10.0274 10.8513 9.80353 10.8513 9.52739V9.5C10.8513 9.22386 10.6274 9 10.3513 9H7.15368C6.87753 9 6.65368 9.22386 6.65368 9.5V9.52739C6.65368 9.80353 6.87753 10.0274 7.15368 10.0274H8.19516V10.7009C6.94223 10.7584 6 11.0066 6 11.304C6 11.6014 6.94223 11.8494 8.19516 11.9072V13.5661C8.19516 13.8423 8.41902 14.0661 8.69516 14.0661H8.80927C9.08541 14.0661 9.30927 13.8423 9.30927 13.5661V11.9064C10.5593 11.8488 11.5 11.6009 11.5 11.3038C11.5 11.0066 10.5604 10.7589 9.30953 10.7011Z" fill="currentColor"/>
<path d="M5.19246 3.83215C5.03773 3.60694 4.81346 3.30124 5.27674 3.23154C5.75294 3.15988 6.24741 3.48585 6.73141 3.47916C7.16928 3.4731 7.39235 3.27889 7.63167 3.00161C7.88367 2.70963 8.2739 2 8.75 2C9.2261 2 9.61633 2.70963 9.86833 3.00161C10.1077 3.27889 10.3307 3.4731 10.7685 3.47916C11.2526 3.48585 11.7471 3.15988 12.2233 3.23154C12.6865 3.30124 12.4623 3.60694 12.3076 3.83215L11.6079 4.85048C11.3086 5.2861 11.159 5.5039 10.8458 5.62695C10.5327 5.75 10.128 5.75 9.31865 5.75H8.18135C7.37203 5.75 6.96732 5.75 6.65417 5.62695C6.34101 5.5039 6.19138 5.2861 5.89209 4.85048L5.19246 3.83215Z" stroke="currentColor" stroke-width="1.5"/>
</svg>
