<svg width="18" height="19" viewBox="0 0 18 19" fill="none" xmlns="http://www.w3.org/2000/svg">
<path d="M1 9.5C1 5.72876 1 3.84315 2.17157 2.67157C3.34315 1.5 5.22876 1.5 9 1.5C12.7712 1.5 14.6569 1.5 15.8284 2.67157C17 3.84315 17 5.72876 17 9.5C17 13.2712 17 15.1569 15.8284 16.3284C14.6569 17.5 12.7712 17.5 9 17.5C5.22876 17.5 3.34315 17.5 2.17157 16.3284C1 15.1569 1 13.2712 1 9.5Z" stroke="black" stroke-width="1.5" stroke-linejoin="round"/>
<path fill-rule="evenodd" clip-rule="evenodd" d="M9.9156 9.83797C9.86446 9.84213 9.60024 9.85925 9.01087 9.85925C8.5421 9.85925 8.20927 9.84399 8.0925 9.83797C6.28091 9.75146 4.92872 9.40908 4.92872 8.99917C4.92872 8.58926 6.28091 8.33558 8.0925 8.24768V9.497C8.21098 9.50625 8.5502 9.528 9.01897 9.528C9.58149 9.528 9.86318 9.50255 9.91389 9.49746L9.9156 8.24768C11.7234 8.33512 13.0709 8.55302 13.0709 8.99917C13.0709 9.40817 11.7221 9.75053 9.91389 9.83751L9.9156 9.83797ZM9.9156 8.02206V6.82516H12.2807C12.5568 6.82516 12.7807 6.6013 12.7807 6.32516V5.5C12.7807 5.22386 12.5568 5 12.2807 5H5.80954C5.5334 5 5.30954 5.22386 5.30954 5.5V6.32516C5.30954 6.6013 5.5334 6.82516 5.80954 6.82516H8.09208V8.02159C6.04184 8.12384 4.5 8.56474 4.5 9.09309C4.5 9.62145 6.04226 10.1713 8.0925 10.274L8.09213 13.4999C8.0921 13.7761 8.31597 14 8.59213 14H9.41522C9.69134 14 9.91519 13.7762 9.91522 13.5001L9.9156 10.274C11.9612 10.1718 13.5 9.62052 13.5 9.09264C13.5 8.56474 11.9624 8.12477 9.9156 8.02206Z" fill="currentColor"/>
</svg>
