<svg width="28" height="28" viewBox="0 0 28 28" fill="none" xmlns="http://www.w3.org/2000/svg">
<path d="M4 12C4 8.22876 4 6.34315 5.17157 5.17157C6.34315 4 8.22876 4 12 4C15.7712 4 17.6569 4 18.8284 5.17157C20 6.34315 20 8.22876 20 12C20 15.7712 20 17.6569 18.8284 18.8284C17.6569 20 15.7712 20 12 20C8.22876 20 6.34315 20 5.17157 18.8284C4 17.6569 4 15.7712 4 12Z" stroke="currentColor" stroke-width="1.5" stroke-linejoin="round"/>
<path fill-rule="evenodd" clip-rule="evenodd" d="M12.9156 12.338C12.8645 12.3421 12.6002 12.3592 12.0109 12.3592C11.5421 12.3592 11.2093 12.344 11.0925 12.338C9.28091 12.2515 7.92872 11.9091 7.92872 11.4992C7.92872 11.0893 9.28091 10.8356 11.0925 10.7477V11.997C11.211 12.0062 11.5502 12.028 12.019 12.028C12.5815 12.028 12.8632 12.0025 12.9139 11.9975L12.9156 10.7477C14.7234 10.8351 16.0709 11.053 16.0709 11.4992C16.0709 11.9082 14.7221 12.2505 12.9139 12.3375L12.9156 12.338ZM12.9156 10.5221V9.32516H15.2807C15.5568 9.32516 15.7807 9.1013 15.7807 8.82516V8C15.7807 7.72386 15.5568 7.5 15.2807 7.5H8.80954C8.5334 7.5 8.30954 7.72386 8.30954 8V8.82516C8.30954 9.1013 8.5334 9.32516 8.80954 9.32516H11.0921V10.5216C9.04184 10.6238 7.5 11.0647 7.5 11.5931C7.5 12.1214 9.04226 12.6713 11.0925 12.774L11.0921 15.9999C11.0921 16.2761 11.316 16.5 11.5921 16.5H12.4152C12.6913 16.5 12.9152 16.2762 12.9152 16.0001L12.9156 12.774C14.9612 12.6718 16.5 12.1205 16.5 11.5926C16.5 11.0647 14.9624 10.6248 12.9156 10.5221Z" fill="currentColor"/>
</svg>
