<svg width="25" height="25" viewBox="0 0 25 25" fill="none" xmlns="http://www.w3.org/2000/svg">
<path d="M4.5 12.5C4.5 8.72876 4.5 6.84315 5.67157 5.67157C6.84315 4.5 8.72876 4.5 12.5 4.5C16.2712 4.5 18.1569 4.5 19.3284 5.67157C20.5 6.84315 20.5 8.72876 20.5 12.5C20.5 16.2712 20.5 18.1569 19.3284 19.3284C18.1569 20.5 16.2712 20.5 12.5 20.5C8.72876 20.5 6.84315 20.5 5.67157 19.3284C4.5 18.1569 4.5 16.2712 4.5 12.5Z" stroke="#02C644" stroke-width="1.5" stroke-linejoin="round"/>
<path fill-rule="evenodd" clip-rule="evenodd" d="M13.4156 12.838C13.3645 12.8421 13.1002 12.8592 12.5109 12.8592C12.0421 12.8592 11.7093 12.844 11.5925 12.838C9.78091 12.7515 8.42872 12.4091 8.42872 11.9992C8.42872 11.5893 9.78091 11.3356 11.5925 11.2477V12.497C11.711 12.5062 12.0502 12.528 12.519 12.528C13.0815 12.528 13.3632 12.5025 13.4139 12.4975L13.4156 11.2477C15.2234 11.3351 16.5709 11.553 16.5709 11.9992C16.5709 12.4082 15.2221 12.7505 13.4139 12.8375L13.4156 12.838ZM13.4156 11.0221V9.82516H15.7807C16.0568 9.82516 16.2807 9.6013 16.2807 9.32516V8.5C16.2807 8.22386 16.0568 8 15.7807 8H9.30954C9.0334 8 8.80954 8.22386 8.80954 8.5V9.32516C8.80954 9.6013 9.0334 9.82516 9.30954 9.82516H11.5921V11.0216C9.54184 11.1238 8 11.5647 8 12.0931C8 12.6214 9.54226 13.1713 11.5925 13.274L11.5921 16.4999C11.5921 16.7761 11.816 17 12.0921 17H12.9152C13.1913 17 13.4152 16.7762 13.4152 16.5001L13.4156 13.274C15.4612 13.1718 17 12.6205 17 12.0926C17 11.5647 15.4624 11.1248 13.4156 11.0221Z" fill="#02C644"/>
</svg>
