<svg width="19" height="19" viewBox="0 0 19 19" fill="none" xmlns="http://www.w3.org/2000/svg">
<path d="M14.7012 10.959L14.1984 8.2226C13.9813 7.04072 13.8727 6.44977 13.4427 6.09988C13.0128 5.75 12.3951 5.75 11.1599 5.75H7.84014C6.60485 5.75 5.98721 5.75 5.55723 6.09988C5.12726 6.44977 5.01869 7.04072 4.80153 8.2226L4.29879 10.959C3.84806 13.4122 3.62269 14.6388 4.31667 15.4444C5.01064 16.25 6.29266 16.25 8.85672 16.25H10.1433C12.7074 16.25 13.9893 16.25 14.6833 15.4444C15.3773 14.6388 15.1519 13.4122 14.7012 10.959Z" stroke="currentColor" stroke-width="1.5" stroke-linecap="round"/>
<path fill-rule="evenodd" clip-rule="evenodd" d="M10.1787 11.0925C10.1458 11.0952 9.97599 11.1062 9.59711 11.1062C9.29576 11.1062 9.08179 11.0964 9.00673 11.0925C7.84214 11.0369 6.97287 10.8168 6.97287 10.5533C6.97287 10.2898 7.84214 10.1267 9.00673 10.0702V10.8733C9.08289 10.8793 9.30096 10.8933 9.60232 10.8933C9.96394 10.8933 10.145 10.8769 10.1776 10.8736L10.1787 10.0702C11.3409 10.1264 12.2071 10.2665 12.2071 10.5533C12.2071 10.8162 11.34 11.0363 10.1776 11.0923L10.1787 11.0925ZM10.1787 9.92517V9.15574H11.5206C11.7967 9.15574 12.0206 8.93188 12.0206 8.65574V8.48242C12.0206 8.20628 11.7967 7.98242 11.5206 7.98242H7.71768C7.44154 7.98242 7.21768 8.20628 7.21768 8.48242V8.65574C7.21768 8.93188 7.44154 9.15574 7.71768 9.15574H9.00646V9.92487C7.68845 9.99061 6.69727 10.274 6.69727 10.6137C6.69727 10.9534 7.68872 11.3068 9.00673 11.3729L9.00652 13.2681C9.00648 13.5442 9.23035 13.7681 9.50652 13.7681H9.6785C9.95462 13.7681 10.1785 13.5443 10.1785 13.2682L10.1787 11.3729C11.4937 11.3071 12.483 10.9528 12.483 10.6134C12.483 10.274 11.4945 9.9912 10.1787 9.92517Z" fill="currentColor"/>
<path d="M16.25 8.75C16.3676 8.69068 16.4698 8.6159 16.5606 8.52163C17 8.06563 17 7.3317 17 5.86382C17 4.39595 17 3.66202 16.5606 3.20601C16.1213 2.75 15.4142 2.75 14 2.75H5C3.58579 2.75 2.87868 2.75 2.43934 3.20601C2 3.66202 2 4.39595 2 5.86382C2 7.3317 2 8.06563 2.43934 8.52163C2.53016 8.6159 2.63241 8.69068 2.75 8.75" stroke="currentColor" stroke-width="1.5" stroke-linecap="round"/>
</svg>
