<svg width="29" height="29" viewBox="0 0 29 29" fill="none" xmlns="http://www.w3.org/2000/svg">
<path d="M22.4511 16.6302L21.6691 12.3736C21.3313 10.5351 21.1624 9.61588 20.4935 9.07161C19.8247 8.52734 18.8639 8.52734 16.9424 8.52734H11.7783C9.85678 8.52734 8.89601 8.52734 8.22716 9.07161C7.55831 9.61588 7.38942 10.5351 7.05163 12.3736L6.26959 16.6302C5.56844 20.4462 5.21787 22.3543 6.29739 23.6076C7.3769 24.8607 9.37116 24.8607 13.3597 24.8607H15.361C19.3496 24.8607 21.3438 24.8607 22.4233 23.6076C23.5028 22.3543 23.1522 20.4462 22.4511 16.6302Z" stroke="#02C644" stroke-width="2" stroke-linecap="round"/>
<path fill-rule="evenodd" clip-rule="evenodd" d="M15.4156 16.838C15.3645 16.8421 15.1002 16.8592 14.5109 16.8592C14.0421 16.8592 13.7093 16.844 13.5925 16.838C11.7809 16.7515 10.4287 16.4091 10.4287 15.9992C10.4287 15.5893 11.7809 15.3356 13.5925 15.2477V16.497C13.711 16.5062 14.0502 16.528 14.519 16.528C15.0815 16.528 15.3632 16.5025 15.4139 16.4975L15.4156 15.2477C17.2234 15.3351 18.5709 15.553 18.5709 15.9992C18.5709 16.4082 17.2221 16.7505 15.4139 16.8375L15.4156 16.838ZM15.4156 15.0221V13.8252H17.7807C18.0568 13.8252 18.2807 13.6013 18.2807 13.3252V12.5C18.2807 12.2239 18.0568 12 17.7807 12H11.3095C11.0334 12 10.8095 12.2239 10.8095 12.5V13.3252C10.8095 13.6013 11.0334 13.8252 11.3095 13.8252H13.5921V15.0216C11.5418 15.1238 10 15.5647 10 16.0931C10 16.6214 11.5423 17.1713 13.5925 17.274L13.5921 20.4999C13.5921 20.7761 13.816 21 14.0921 21H14.9152C15.1913 21 15.4152 20.7762 15.4152 20.5001L15.4156 17.274C17.4612 17.1718 19 16.6205 19 16.0926C19 15.5647 17.4624 15.1248 15.4156 15.0221Z" fill="#02C644"/>
<path d="M24.86 13.1947C25.043 13.1024 25.202 12.9861 25.3433 12.8394C26.0267 12.1301 26.0267 10.9884 26.0267 8.70505C26.0267 6.42169 26.0267 5.28002 25.3433 4.57067C24.6598 3.86133 23.5599 3.86133 21.36 3.86133H7.36003C5.16014 3.86133 4.06019 3.86133 3.37678 4.57067C2.69336 5.28002 2.69336 6.42169 2.69336 8.70505C2.69336 10.9884 2.69336 12.1301 3.37678 12.8394C3.51805 12.9861 3.67712 13.1024 3.86003 13.1947" stroke="#02C644" stroke-width="2" stroke-linecap="round"/>
</svg>
