<svg width="20" height="21" viewBox="0 0 20 21" fill="none" xmlns="http://www.w3.org/2000/svg">
<path d="M3.33301 15.4833V8.58896C3.33301 5.56115 3.33301 4.04725 4.30932 3.10663C5.28563 2.16602 6.85697 2.16602 9.99967 2.16602C13.1423 2.16602 14.7138 2.16602 15.69 3.10663C16.6663 4.04725 16.6663 5.56115 16.6663 8.58896V15.4833C16.6663 17.4049 16.6663 18.3657 16.0223 18.7096C14.7751 19.3755 12.4357 17.1537 11.3247 16.4847C10.6803 16.0967 10.3582 15.9027 9.99967 15.9027C9.64117 15.9027 9.31901 16.0967 8.67467 16.4847C7.56367 17.1537 5.22423 19.3755 3.97705 18.7096C3.33301 18.3657 3.33301 17.4049 3.33301 15.4833Z" stroke="#999999" stroke-width="1.5" stroke-linecap="round" stroke-linejoin="round"/>
</svg>
