<svg width="18" height="19" viewBox="0 0 18 19" fill="none" xmlns="http://www.w3.org/2000/svg">
<path d="M8.25 4.25H13.5" stroke="currentColor" stroke-width="1.5" stroke-linecap="round" stroke-linejoin="round"/>
<path d="M7.5 8L10.875 11.375" stroke="currentColor" stroke-width="1.5" stroke-linecap="round" stroke-linejoin="round"/>
<path d="M3.75 8.75V14" stroke="currentColor" stroke-width="1.5" stroke-linecap="round" stroke-linejoin="round"/>
<path d="M4.83333 8.66666C6.67428 8.66666 8.16666 7.17428 8.16666 5.33333C8.16666 3.49238 6.67428 2 4.83333 2C2.99238 2 1.5 3.49238 1.5 5.33333C1.5 7.17428 2.99238 8.66666 4.83333 8.66666Z" stroke="currentColor" stroke-width="1.5"/>
<path d="M3.75 17C4.57843 17 5.25 16.3284 5.25 15.5C5.25 14.6716 4.57843 14 3.75 14C2.92157 14 2.25 14.6716 2.25 15.5C2.25 16.3284 2.92157 17 3.75 17Z" stroke="currentColor" stroke-width="1.5"/>
<path d="M12 14C12.8284 14 13.5 13.3284 13.5 12.5C13.5 11.6716 12.8284 11 12 11C11.1716 11 10.5 11.6716 10.5 12.5C10.5 13.3284 11.1716 14 12 14Z" stroke="currentColor" stroke-width="1.5"/>
<path d="M15 5.75C15.8284 5.75 16.5 5.07843 16.5 4.25C16.5 3.42157 15.8284 2.75 15 2.75C14.1716 2.75 13.5 3.42157 13.5 4.25C13.5 5.07843 14.1716 5.75 15 5.75Z" stroke="currentColor" stroke-width="1.5"/>
</svg>
