<svg width="29" height="29" viewBox="0 0 29 29" fill="none" xmlns="http://www.w3.org/2000/svg">
<path d="M13.0488 6.19531H21.2155" stroke="#02C644" stroke-width="2" stroke-linecap="round" stroke-linejoin="round"/>
<path d="M11.8828 12.0273L17.1328 17.2773" stroke="#02C644" stroke-width="2" stroke-linecap="round" stroke-linejoin="round"/>
<path d="M6.04883 13.1953V21.362" stroke="#02C644" stroke-width="2" stroke-linecap="round" stroke-linejoin="round"/>
<path d="M7.73401 13.0657C10.5977 13.0657 12.9192 10.7442 12.9192 7.88049C12.9192 5.0168 10.5977 2.69531 7.73401 2.69531C4.87031 2.69531 2.54883 5.0168 2.54883 7.88049C2.54883 10.7442 4.87031 13.0657 7.73401 13.0657Z" stroke="#02C644" stroke-width="2"/>
<path d="M6.04915 26.028C7.33782 26.028 8.38249 24.9833 8.38249 23.6947C8.38249 22.406 7.33782 21.3613 6.04915 21.3613C4.76049 21.3613 3.71582 22.406 3.71582 23.6947C3.71582 24.9833 4.76049 26.028 6.04915 26.028Z" stroke="#02C644" stroke-width="2"/>
<path d="M18.8822 21.362C20.1708 21.362 21.2155 20.3173 21.2155 19.0286C21.2155 17.74 20.1708 16.6953 18.8822 16.6953C17.5935 16.6953 16.5488 17.74 16.5488 19.0286C16.5488 20.3173 17.5935 21.362 18.8822 21.362Z" stroke="#02C644" stroke-width="2"/>
<path d="M23.5492 8.52799C24.8378 8.52799 25.8825 7.48333 25.8825 6.19466C25.8825 4.906 24.8378 3.86133 23.5492 3.86133C22.2605 3.86133 21.2158 4.906 21.2158 6.19466C21.2158 7.48333 22.2605 8.52799 23.5492 8.52799Z" stroke="#02C644" stroke-width="2"/>
</svg>
