<svg width="16" height="16" viewBox="0 0 16 16" fill="none" xmlns="http://www.w3.org/2000/svg">
<path fill-rule="evenodd" clip-rule="evenodd" d="M14.3643 3.40738C14.5518 3.59491 14.6571 3.84921 14.6571 4.11438C14.6571 4.37954 14.5518 4.63385 14.3643 4.82138L6.86901 12.3167C6.76996 12.4158 6.65236 12.4944 6.52293 12.548C6.3935 12.6016 6.25477 12.6292 6.11468 12.6292C5.97458 12.6292 5.83585 12.6016 5.70642 12.548C5.57699 12.4944 5.4594 12.4158 5.36034 12.3167L1.63634 8.59338C1.54083 8.50113 1.46465 8.39079 1.41224 8.26878C1.35983 8.14678 1.33225 8.01556 1.33109 7.88278C1.32994 7.75 1.35524 7.61832 1.40552 7.49542C1.4558 7.37253 1.53006 7.26087 1.62395 7.16698C1.71784 7.07309 1.82949 6.99884 1.95239 6.94856C2.07529 6.89827 2.20696 6.87297 2.33974 6.87413C2.47252 6.87528 2.60374 6.90287 2.72575 6.95528C2.84775 7.00768 2.9581 7.08387 3.05034 7.17938L6.11434 10.2434L12.9497 3.40738C13.0425 3.31445 13.1528 3.24073 13.2742 3.19044C13.3955 3.14014 13.5256 3.11426 13.657 3.11426C13.7884 3.11426 13.9185 3.14014 14.0398 3.19044C14.1612 3.24073 14.2715 3.31445 14.3643 3.40738Z" fill="white"/>
</svg>
