<svg width="19" height="19" viewBox="0 0 19 19" fill="none" xmlns="http://www.w3.org/2000/svg">
<path d="M2.375 9.5C2.375 6.14124 2.375 4.46187 3.41843 3.41843C4.46187 2.375 6.14124 2.375 9.5 2.375C12.8587 2.375 14.5381 2.375 15.5816 3.41843C16.625 4.46187 16.625 6.14124 16.625 9.5C16.625 12.8587 16.625 14.5381 15.5816 15.5816C14.5381 16.625 12.8587 16.625 9.5 16.625C6.14124 16.625 4.46187 16.625 3.41843 15.5816C2.375 14.5381 2.375 12.8587 2.375 9.5Z" stroke="currentColor" stroke-width="1.5"/>
<path d="M6.5 10.8125C6.5 10.8125 7.7 11.4969 8.3 12.5C8.3 12.5 10.1 8.5625 12.5 7.25" stroke="currentColor" stroke-width="1.5" stroke-linecap="round" stroke-linejoin="round"/>
</svg>
