<svg width="18" height="18" viewBox="0 0 18 18" fill="none" xmlns="http://www.w3.org/2000/svg">
<path d="M9 16.5C13.1421 16.5 16.5 13.1421 16.5 9C16.5 4.85786 13.1421 1.5 9 1.5C4.85786 1.5 1.5 4.85786 1.5 9C1.5 13.1421 4.85786 16.5 9 16.5Z" stroke="#999999" stroke-width="1.125"/>
<path d="M5.95251 12.0475C5.56452 11.6596 5.62901 10.0112 5.62901 10.0112M5.95251 12.0475C6.34051 12.4356 7.98878 12.3709 7.98878 12.3709M5.95251 12.0475L8.25 9.75M12.0476 5.95246C11.6596 5.56446 10.0113 5.62903 10.0113 5.62903M12.0476 5.95246C12.4356 6.34045 12.371 7.9887 12.371 7.9887M12.0476 5.95246L9.75 8.25" stroke="#999999" stroke-width="1.125" stroke-linecap="round" stroke-linejoin="round"/>
</svg>
