<svg width="24" height="24" viewBox="0 0 24 24" fill="none" xmlns="http://www.w3.org/2000/svg">
<path d="M4.5 10C4.5 6.22876 4.5 4.34315 5.67157 3.17157C6.84315 2 8.72876 2 12.5 2H14C17.7712 2 19.6569 2 20.8284 3.17157C22 4.34315 22 6.22876 22 10V14C22 17.7712 22 19.6569 20.8284 20.8284C19.6569 22 17.7712 22 14 22H12.5C8.72876 22 6.84315 22 5.67157 20.8284C4.5 19.6569 4.5 17.7712 4.5 14V10Z" stroke="#999999" stroke-width="1.5"/>
<path d="M4.5 6H2M4.5 12H2M4.5 18H2" stroke="#999999" stroke-width="1.5" stroke-linecap="round" stroke-linejoin="round"/>
<path d="M15.2752 8.49212C15.2752 9.59666 14.3798 10.4921 13.2753 10.4921C12.1708 10.4921 11.2754 9.59666 11.2754 8.49212C11.2754 7.38759 12.1708 6.49219 13.2753 6.49219C14.3798 6.49219 15.2752 7.38759 15.2752 8.49212Z" stroke="#999999" stroke-width="1.5" stroke-linecap="round" stroke-linejoin="round"/>
<path d="M9.31982 15.7153C10.3782 14.086 12.0589 13.4754 13.2749 13.4766C14.491 13.4779 16.1224 14.086 17.1807 15.7153C17.2492 15.8207 17.268 15.9504 17.2063 16.0599C16.9588 16.4988 16.1903 17.3697 15.6352 17.4288C14.9975 17.4966 13.3291 17.5061 13.2762 17.5064C13.2232 17.5061 11.5034 17.4966 10.8653 17.4288C10.3103 17.3697 9.5418 16.4988 9.29429 16.0599C9.23254 15.9504 9.25139 15.8207 9.31982 15.7153Z" stroke="#999999" stroke-width="1.5" stroke-linecap="round" stroke-linejoin="round"/>
</svg>
