<svg width="29" height="29" viewBox="0 0 29 29" fill="none" xmlns="http://www.w3.org/2000/svg">
<path d="M20.0488 14.1326C20.0488 13.7293 20.0488 13.5277 20.1095 13.348C20.2859 12.8258 20.7509 12.6233 21.2168 12.4111C21.7405 12.1725 22.0023 12.0532 22.2618 12.0322C22.5563 12.0084 22.8514 12.0719 23.1032 12.2132C23.4369 12.4004 23.6697 12.7564 23.908 13.0458C25.0087 14.3826 25.5589 15.0511 25.7602 15.7882C25.9228 16.383 25.9228 17.005 25.7602 17.5998C25.4666 18.6749 24.5387 19.5761 23.8519 20.4103C23.5006 20.837 23.3249 21.0503 23.1032 21.1748C22.8514 21.3161 22.5563 21.3796 22.2618 21.3558C22.0023 21.3348 21.7405 21.2155 21.2168 20.977C20.7509 20.7647 20.2859 20.5622 20.1095 20.04C20.0488 19.8603 20.0488 19.6587 20.0488 19.2554V14.1326Z" stroke="#02C644" stroke-width="2"/>
<path d="M8.38216 14.1327C8.38216 13.6249 8.36791 13.1685 7.95739 12.8115C7.80808 12.6817 7.61012 12.5915 7.21422 12.4111C6.69051 12.1727 6.42865 12.0534 6.16918 12.0324C5.39072 11.9694 4.9719 12.5007 4.52298 13.046C3.42237 14.3828 2.87206 15.0512 2.6707 15.7883C2.5082 16.3832 2.5082 17.0052 2.6707 17.6C2.96439 18.6751 3.89227 19.5762 4.57907 20.4105C5.012 20.9363 5.42556 21.4161 6.16918 21.356C6.42865 21.335 6.69051 21.2156 7.21422 20.9772C7.61012 20.7968 7.80808 20.7066 7.95739 20.5768C8.36791 20.2198 8.38216 19.7635 8.38216 19.2556V14.1327Z" stroke="#02C644" stroke-width="2"/>
<path d="M23.5495 12.612V10.862C23.5495 6.35166 19.3708 2.69531 14.2161 2.69531C9.06149 2.69531 4.88281 6.35166 4.88281 10.862V12.612" stroke="#02C644" stroke-width="2" stroke-linecap="round" stroke-linejoin="round"/>
<path d="M23.5492 20.7773C23.5492 26.0273 18.8825 26.0273 14.2158 26.0273" stroke="#02C644" stroke-width="2" stroke-linecap="round" stroke-linejoin="round"/>
</svg>
