<svg width="18" height="19" viewBox="0 0 18 19" fill="none" xmlns="http://www.w3.org/2000/svg">
<path d="M12.75 8.60338C12.75 8.3441 12.75 8.2145 12.789 8.099C12.9024 7.76333 13.2014 7.63307 13.5008 7.49666C13.8375 7.34332 14.0058 7.26664 14.1726 7.25315C14.362 7.23784 14.5517 7.27864 14.7135 7.36947C14.9281 7.48988 15.0777 7.7187 15.2309 7.90477C15.9385 8.7641 16.2922 9.19385 16.4216 9.6677C16.5261 10.0501 16.5261 10.45 16.4216 10.8323C16.2329 11.5234 15.6364 12.1028 15.1948 12.6391C14.969 12.9133 14.8561 13.0505 14.7135 13.1305C14.5517 13.2214 14.362 13.2622 14.1726 13.2469C14.0058 13.2334 13.8375 13.1567 13.5008 13.0033C13.2014 12.8669 12.9024 12.7367 12.789 12.401C12.75 12.2855 12.75 12.1559 12.75 11.8966V8.60338Z" stroke="currentColor" stroke-width="1.5"/>
<path d="M5.25 8.60345C5.25 8.27705 5.24084 7.98366 4.97693 7.75415C4.88095 7.67068 4.75369 7.61271 4.49918 7.49679C4.16251 7.34344 3.99417 7.26677 3.82737 7.25327C3.32693 7.2128 3.05769 7.55436 2.7691 7.90489C2.06156 8.76425 1.7078 9.19393 1.57835 9.66778C1.47388 10.0502 1.47388 10.4501 1.57835 10.8325C1.76715 11.5236 2.36364 12.1029 2.80516 12.6392C3.08347 12.9772 3.34933 13.2856 3.82737 13.247C3.99417 13.2335 4.16251 13.1568 4.49918 13.0035C4.75369 12.8875 4.88095 12.8296 4.97693 12.7461C5.24084 12.5166 5.25 12.2233 5.25 11.8968V8.60345Z" stroke="currentColor" stroke-width="1.5"/>
<path d="M3.75 7.25C3.75 4.76472 6.10051 2.75 9 2.75C11.8995 2.75 14.25 4.76472 14.25 7.25" stroke="currentColor" stroke-width="1.5" stroke-linecap="square" stroke-linejoin="round"/>
<path d="M14.25 13.25V13.85C14.25 15.1755 12.9068 16.25 11.25 16.25H9.75" stroke="currentColor" stroke-width="1.5" stroke-linecap="round" stroke-linejoin="round"/>
</svg>
