<svg width="16" height="16" viewBox="0 0 16 16" fill="none" xmlns="http://www.w3.org/2000/svg">
<path d="M8.01712 15.5C5.91511 15.5 4.13662 14.7725 2.68164 13.3176C1.22721 11.8632 0.5 10.085 0.5 7.98304C0.5 6.06203 1.12643 4.39494 2.37928 2.98175C3.63213 1.56911 5.233 0.744475 7.18189 0.50783C7.5299 0.466069 7.80135 0.591352 7.99624 0.883678C8.19113 1.176 8.18417 1.48225 7.97536 1.80242C7.73871 2.16435 7.56108 2.54716 7.44248 2.95084C7.32443 3.35453 7.26541 3.7791 7.26541 4.22455C7.26541 5.47738 7.70391 6.54228 8.58091 7.41926C9.4579 8.29624 10.5228 8.73473 11.7757 8.73473C12.2072 8.73473 12.6354 8.67209 13.0603 8.54681C13.4846 8.42152 13.8638 8.24752 14.1979 8.0248C14.4902 7.82991 14.7895 7.81933 15.0957 7.99306C15.402 8.16734 15.5342 8.44241 15.4925 8.81825C15.2976 10.7393 14.4799 12.3331 13.0394 13.5999C11.5983 14.8666 9.92424 15.5 8.01712 15.5Z" fill="currentColor"/>
</svg>
