<svg width="18" height="19" viewBox="0 0 18 19" fill="none" xmlns="http://www.w3.org/2000/svg">
<path d="M1.5 5C1.5 3.9499 1.5 3.42485 1.70436 3.02377C1.88413 2.67097 2.17097 2.38413 2.52377 2.20436C2.92485 2 3.4499 2 4.5 2C5.5501 2 6.07515 2 6.47624 2.20436C6.82904 2.38413 7.11587 2.67097 7.29564 3.02377C7.5 3.42485 7.5 3.9499 7.5 5C7.5 6.0501 7.5 6.57515 7.29564 6.97624C7.11587 7.32904 6.82904 7.61587 6.47624 7.79564C6.07515 8 5.5501 8 4.5 8C3.4499 8 2.92485 8 2.52377 7.79564C2.17097 7.61587 1.88413 7.32904 1.70436 6.97624C1.5 6.57515 1.5 6.0501 1.5 5Z" stroke="currentColor" stroke-width="1.5"/>
<path d="M1.5 14C1.5 12.9499 1.5 12.4248 1.70436 12.0237C1.88413 11.6709 2.17097 11.3842 2.52377 11.2044C2.92485 11 3.4499 11 4.5 11C5.5501 11 6.07515 11 6.47624 11.2044C6.82904 11.3842 7.11587 11.6709 7.29564 12.0237C7.5 12.4248 7.5 12.9499 7.5 14C7.5 15.0501 7.5 15.5752 7.29564 15.9763C7.11587 16.3291 6.82904 16.6159 6.47624 16.7956C6.07515 17 5.5501 17 4.5 17C3.4499 17 2.92485 17 2.52377 16.7956C2.17097 16.6159 1.88413 16.3291 1.70436 15.9763C1.5 15.5752 1.5 15.0501 1.5 14Z" stroke="currentColor" stroke-width="1.5"/>
<path d="M10.5 14C10.5 12.9499 10.5 12.4248 10.7044 12.0237C10.8842 11.6709 11.1709 11.3842 11.5237 11.2044C11.9248 11 12.4499 11 13.5 11C14.5501 11 15.0752 11 15.4763 11.2044C15.8291 11.3842 16.1159 11.6709 16.2956 12.0237C16.5 12.4248 16.5 12.9499 16.5 14C16.5 15.0501 16.5 15.5752 16.2956 15.9763C16.1159 16.3291 15.8291 16.6159 15.4763 16.7956C15.0752 17 14.5501 17 13.5 17C12.4499 17 11.9248 17 11.5237 16.7956C11.1709 16.6159 10.8842 16.3291 10.7044 15.9763C10.5 15.5752 10.5 15.0501 10.5 14Z" stroke="currentColor" stroke-width="1.5"/>
<path d="M15.4993 4.35587L13.0184 6.83675L13.8139 7.63225L16.2948 5.15136L15.4993 4.35587ZM11.6632 5.48154L14.144 3.00066L13.3486 2.20516L10.8677 4.68603L11.6632 5.48154ZM11.3931 7.34173C11.2616 7.36986 11.1564 7.3923 11.066 7.40909C10.9749 7.42604 10.9151 7.43405 10.8746 7.43663C10.833 7.43928 10.8359 7.43434 10.8618 7.44103C10.8971 7.45014 10.9451 7.47289 10.9861 7.51383L10.1906 8.3093C10.4334 8.55215 10.7368 8.5727 10.946 8.55935C11.1452 8.54668 11.3879 8.49327 11.6283 8.44182L11.3931 7.34173ZM10.0581 6.87159C10.0067 7.11207 9.95327 7.3548 9.9406 7.55392C9.92725 7.76314 9.9478 8.06652 10.1906 8.3093L10.9861 7.51383C11.027 7.55478 11.0498 7.60279 11.0589 7.6381C11.0656 7.66405 11.0606 7.66693 11.0633 7.62533C11.0659 7.58481 11.0739 7.52505 11.0909 7.43389C11.1077 7.34355 11.1301 7.23841 11.1582 7.10683L10.0581 6.87159ZM15.4993 3.00066C15.7749 3.27627 15.8312 3.33948 15.86 3.38922L16.8343 2.82672C16.7129 2.61638 16.5192 2.42956 16.2948 2.20516L15.4993 3.00066ZM16.2948 5.15136C16.5192 4.92696 16.7129 4.74015 16.8343 4.5298L15.86 3.9673C15.8312 4.01705 15.7749 4.08025 15.4993 4.35587L16.2948 5.15136ZM15.86 3.38922C15.9632 3.56808 15.9632 3.78844 15.86 3.9673L16.8343 4.5298C17.1385 4.00287 17.1385 3.35366 16.8343 2.82672L15.86 3.38922ZM16.2948 2.20516C16.0703 1.98076 15.8836 1.78711 15.6732 1.66567L15.1107 2.63995C15.1604 2.66867 15.2237 2.72503 15.4993 3.00066L16.2948 2.20516ZM14.144 3.00066C14.4197 2.72504 14.4829 2.66867 14.5326 2.63995L13.9701 1.66567C13.7598 1.78711 13.573 1.98076 13.3486 2.20516L14.144 3.00066ZM15.6732 1.66567C15.1463 1.36144 14.4971 1.36144 13.9701 1.66567L14.5326 2.63995C14.7115 2.53668 14.9318 2.53668 15.1107 2.63995L15.6732 1.66567ZM13.0184 6.83675C12.8717 6.9834 12.6713 7.07822 12.3866 7.15092C12.2439 7.18735 12.0917 7.2155 11.9222 7.2448C11.7592 7.27296 11.5727 7.30334 11.3931 7.34173L11.6283 8.44182C11.7797 8.4095 11.9348 8.3843 12.1137 8.3534C12.286 8.32363 12.4759 8.2892 12.6649 8.24097C13.0435 8.1443 13.4649 7.98123 13.8139 7.63225L13.0184 6.83675ZM11.1582 7.10683C11.1966 6.9273 11.227 6.74073 11.2551 6.57778C11.2844 6.40818 11.3126 6.25601 11.349 6.11335C11.4217 5.82858 11.5166 5.62818 11.6632 5.48154L10.8677 4.68603C10.5187 5.03502 10.3556 5.45647 10.259 5.83506C10.2107 6.02408 10.1763 6.21398 10.1465 6.38624C10.1156 6.56515 10.0904 6.72024 10.0581 6.87159L11.1582 7.10683Z" fill="currentColor"/>
</svg>


