<svg width="25" height="24" viewBox="0 0 25 24" fill="none" xmlns="http://www.w3.org/2000/svg">
<path fill-rule="evenodd" clip-rule="evenodd" d="M10.1023 5.44677C10.1023 5.44677 11.2149 5.21397 12.5002 5.21397C13.7855 5.21397 14.8981 5.44677 14.8981 5.44677L15.3431 4.52891C15.437 4.33509 15.6438 4.22196 15.8549 4.25602C18.001 4.60213 20.001 5.75 20.001 5.75C20.001 5.75 22.4994 8.25 22.4994 17.0673C22.5004 17.2261 22.4265 17.3801 22.2986 17.4725C20.6582 18.6572 18.6659 19.4353 17.8621 19.7224C17.6491 19.7985 17.4158 19.7127 17.2944 19.5205L16.7319 18.6301C16.5779 18.3864 16.6579 18.0622 16.9071 17.9198L18.0826 17.2483L17.6071 16.8731C17.6071 16.8731 15.7051 18.0247 12.5002 18.0247C9.29526 18.0247 7.39331 16.8731 7.39331 16.8731L6.91783 17.2483L8.09324 17.9198C8.3425 18.0622 8.42249 18.3864 8.26851 18.6301L7.70601 19.5205C7.58456 19.7127 7.35124 19.7985 7.13825 19.7224C6.33449 19.4353 4.34215 18.6572 2.70178 17.4725C2.57384 17.3801 2.49999 17.2261 2.50099 17.0673C2.50099 8.25 5.00098 5.75 5.00098 5.75C5.00098 5.75 7.00098 4.60187 9.14548 4.25602C9.35663 4.22196 9.56333 4.33509 9.6573 4.52891L10.1023 5.44677ZM17.751 12.75C17.751 13.8546 16.9675 14.75 16.001 14.75C15.0345 14.75 14.251 13.8546 14.251 12.75C14.251 11.6454 15.0345 10.75 16.001 10.75C16.9675 10.75 17.751 11.6454 17.751 12.75ZM9.00098 14.75C9.96748 14.75 10.751 13.8546 10.751 12.75C10.751 11.6454 9.96748 10.75 9.00098 10.75C8.03449 10.75 7.25098 11.6454 7.25098 12.75C7.25098 13.8546 8.03449 14.75 9.00098 14.75Z" fill="currentColor" fill-opacity="0.72"/>
</svg>
