<svg width="25" height="24" viewBox="0 0 25 24" fill="none" xmlns="http://www.w3.org/2000/svg">
<path fill-rule="evenodd" clip-rule="evenodd" d="M6.05845 10.2083C4.97593 10.2083 4.75 10.4146 4.75 11.4028V13.1944C4.75 14.1826 4.97593 14.3889 6.05845 14.3889H8.67533V21.5556C8.67533 22.5438 8.90125 22.75 9.98377 22.75H12.6007C13.6832 22.75 13.9091 22.5438 13.9091 21.5556V14.3889H16.8475C17.6685 14.3889 17.8801 14.2432 18.1056 13.5226L18.6664 11.7309C19.0527 10.4965 18.8146 10.2083 17.4083 10.2083H13.9091V7.22222C13.9091 6.56255 14.4949 6.02778 15.2176 6.02778H18.9416C20.0241 6.02778 20.25 5.82154 20.25 4.83333V2.44444C20.25 1.45624 20.0241 1.25 18.9416 1.25H15.2176C11.6044 1.25 8.67533 3.92386 8.67533 7.22222V10.2083H6.05845Z" fill="currentColor" fill-opacity="0.72"/>
</svg>
