<svg width="29" height="28" viewBox="0 0 29 28" fill="none" xmlns="http://www.w3.org/2000/svg">
<path d="M26.7512 14.272C26.7512 13.2648 26.6678 12.5298 26.4873 11.7676H14.7512V16.3136H21.64C21.5012 17.4434 20.7512 19.1448 19.0845 20.2881L19.0612 20.4403L22.7719 23.2574L23.029 23.2826C25.39 21.1456 26.7512 18.0014 26.7512 14.272" fill="#4285F4"/>
<path d="M14.7504 26.2492C18.1253 26.2492 20.9586 25.1602 23.0281 23.2819L19.0837 20.2874C18.0281 21.0088 16.6115 21.5124 14.7504 21.5124C11.4449 21.5124 8.63935 19.3755 7.63926 16.4219L7.49267 16.4341L3.6342 19.3605L3.58374 19.498C5.63927 23.4996 9.86148 26.2492 14.7504 26.2492Z" fill="#34A853"/>
<path d="M7.64005 16.4227C7.37617 15.6605 7.22345 14.8438 7.22345 13.9999C7.22345 13.156 7.37617 12.3394 7.62617 11.5771L7.61918 11.4148L3.71234 8.44141L3.58452 8.50099C2.73734 10.1616 2.25122 12.0263 2.25122 13.9999C2.25122 15.9735 2.73734 17.8382 3.58452 19.4988L7.64005 16.4227" fill="#FBBC05"/>
<path d="M14.7505 6.48663C17.0976 6.48663 18.681 7.48024 19.5838 8.31057L23.1115 4.935C20.9449 2.96139 18.1254 1.75 14.7505 1.75C9.86152 1.75 5.63928 4.49942 3.58374 8.50106L7.6254 11.5772C8.63938 8.6236 11.4449 6.48663 14.7505 6.48663" fill="#EB4335"/>
</svg>
