<svg width="19" height="19" viewBox="0 0 19 19" fill="none" xmlns="http://www.w3.org/2000/svg">
<path d="M2 11C2 8.37005 2 7.05502 2.68097 6.16994C2.80563 6.00791 2.94492 5.85934 3.09682 5.72637C3.92658 5 5.15939 5 7.625 5H11.375C13.8406 5 15.0734 5 15.9032 5.72637C16.0551 5.85934 16.1943 6.00791 16.319 6.16994C17 7.05502 17 8.37005 17 11C17 13.6299 17 14.945 16.319 15.8301C16.1943 15.9921 16.0551 16.1406 15.9032 16.2736C15.0734 17 13.8406 17 11.375 17H7.625C5.15939 17 3.92658 17 3.09682 16.2736C2.94492 16.1406 2.80563 15.9921 2.68097 15.8301C2 14.945 2 13.6299 2 11Z" stroke="currentColor" stroke-width="1.5"/>
<path d="M12.5 5C12.5 3.58579 12.5 2.87868 12.0606 2.43934C11.6213 2 10.9142 2 9.5 2C8.0858 2 7.37868 2 6.93934 2.43934C6.5 2.87868 6.5 3.58579 6.5 5" stroke="currentColor" stroke-width="1.5" stroke-linecap="round" stroke-linejoin="round"/>
<path d="M9.5 8.75C8.67155 8.75 8 9.2537 8 9.875C8 10.4963 8.67155 11 9.5 11C10.3284 11 11 11.5037 11 12.125C11 12.7463 10.3284 13.25 9.5 13.25M9.5 8.75C10.1531 8.75 10.7087 9.06305 10.9146 9.5M9.5 8.75V8M9.5 13.25C8.8469 13.25 8.2913 12.9369 8.08535 12.5M9.5 13.25V14" stroke="currentColor" stroke-width="1.5" stroke-linecap="round"/>
<path d="M5 9.5H2" stroke="currentColor" stroke-width="1.5" stroke-linecap="round"/>
<path d="M17 9.5H14" stroke="currentColor" stroke-width="1.5" stroke-linecap="round"/>
</svg>
