<svg width="20" height="20" viewBox="0 0 20 20" fill="none" xmlns="http://www.w3.org/2000/svg">
<path d="M15.8337 15.833H6.66699C6.20866 15.833 5.8163 15.6698 5.48991 15.3434C5.16352 15.017 5.00033 14.6247 5.00033 14.1663V2.49967C5.00033 2.04134 5.16352 1.64898 5.48991 1.32259C5.8163 0.996202 6.20866 0.833008 6.66699 0.833008H12.5003L17.5003 5.83301V14.1663C17.5003 14.6247 17.3371 15.017 17.0107 15.3434C16.6844 15.6698 16.292 15.833 15.8337 15.833ZM11.667 6.66634V2.49967H6.66699V14.1663H15.8337V6.66634H11.667ZM3.33366 19.1663C2.87533 19.1663 2.48296 19.0031 2.15658 18.6768C1.83019 18.3504 1.66699 17.958 1.66699 17.4997V5.83301H3.33366V17.4997H12.5003V19.1663H3.33366Z" fill="#999999"/>
</svg>
