<svg width="18" height="19" viewBox="0 0 18 19" fill="none" xmlns="http://www.w3.org/2000/svg">
<path d="M14.809 10.25C15.4022 9.39965 15.75 8.3654 15.75 7.25C15.75 4.35051 13.3995 2 10.5 2C7.6005 2 5.25 4.3505 5.25 7.25C5.25 8.0552 5.43127 8.81802 5.75522 9.5" stroke="currentColor" stroke-width="1.5" stroke-linecap="round" stroke-linejoin="round"/>
<path fill-rule="evenodd" clip-rule="evenodd" d="M11.1104 7.47531C11.0763 7.47809 10.9002 7.4895 10.5072 7.4895C10.1947 7.4895 9.97284 7.47933 9.895 7.47531C8.68727 7.41764 7.78581 7.18939 7.78581 6.91612C7.78581 6.64284 8.68727 6.47372 9.895 6.41512V7.248C9.97398 7.25417 10.2001 7.26867 10.5126 7.26867C10.8877 7.26867 11.0755 7.2517 11.1093 7.2483L11.1104 6.41512C12.3156 6.47341 13.2139 6.61868 13.2139 6.91612C13.2139 7.18878 12.3147 7.41702 11.1093 7.47501L11.1104 7.47531ZM11.1104 6.26471V5.46677H12.5205C12.7966 5.46677 13.0205 5.24292 13.0205 4.96677V4.75C13.0205 4.47386 12.7966 4.25 12.5205 4.25H8.53969C8.26355 4.25 8.03969 4.47386 8.03969 4.75V4.96677C8.03969 5.24292 8.26355 5.46677 8.53969 5.46677H9.89472V6.26439C8.52789 6.33256 7.5 6.62649 7.5 6.97873C7.5 7.33096 8.52817 7.69754 9.895 7.76601L9.89478 9.74994C9.89474 10.0261 10.1186 10.25 10.3948 10.25H10.6102C10.8863 10.25 11.1101 10.0262 11.1102 9.75006L11.1104 7.76601C12.4741 7.69785 13.5 7.33034 13.5 6.97842C13.5 6.62649 12.475 6.33318 11.1104 6.26471Z" fill="currentColor"/>
<path d="M2.25 11H4.04612C4.26673 11 4.48431 11.0497 4.68163 11.1452L6.21311 11.8862C6.41043 11.9817 6.62801 12.0313 6.84863 12.0313H7.63057C8.38687 12.0313 9 12.6247 9 13.3565C9 13.386 8.97975 13.4121 8.95035 13.4202L7.04465 13.9471C6.7028 14.0416 6.33675 14.0087 6.01875 13.8548L4.38158 13.0627M9 12.875L12.4446 11.8167C13.0553 11.6264 13.7153 11.852 14.0978 12.3817C14.3744 12.7647 14.2618 13.3131 13.8589 13.5456L8.22218 16.7979C7.86368 17.0047 7.4407 17.0552 7.04637 16.9382L2.25 15.5149" stroke="currentColor" stroke-width="1.5" stroke-linecap="round" stroke-linejoin="round"/>
</svg>
