<svg width="24" height="24" viewBox="0 0 24 24" fill="none" xmlns="http://www.w3.org/2000/svg">
<path d="M23.2602 21.6997L15.9054 14.3449C17.0467 12.8694 17.6641 11.0654 17.6641 9.16797C17.6641 6.89668 16.7776 4.76699 15.1747 3.16123C13.5718 1.55547 11.4364 0.671875 9.16797 0.671875C6.89951 0.671875 4.76416 1.5583 3.16123 3.16123C1.55547 4.76416 0.671875 6.89668 0.671875 9.16797C0.671875 11.4364 1.5583 13.5718 3.16123 15.1747C4.76416 16.7805 6.89668 17.6641 9.16797 17.6641C11.0654 17.6641 12.8666 17.0467 14.3421 15.9082L21.6969 23.2602C21.7184 23.2817 21.744 23.2989 21.7722 23.3105C21.8004 23.3222 21.8306 23.3282 21.8611 23.3282C21.8916 23.3282 21.9219 23.3222 21.95 23.3105C21.9782 23.2989 22.0038 23.2817 22.0254 23.2602L23.2602 22.0282C23.2817 22.0067 23.2989 21.9811 23.3105 21.9529C23.3222 21.9247 23.3282 21.8945 23.3282 21.864C23.3282 21.8335 23.3222 21.8032 23.3105 21.7751C23.2989 21.7469 23.2817 21.7213 23.2602 21.6997ZM13.6539 13.6539C12.4531 14.8519 10.8615 15.5117 9.16797 15.5117C7.47441 15.5117 5.88281 14.8519 4.68203 13.6539C3.48408 12.4531 2.82422 10.8615 2.82422 9.16797C2.82422 7.47441 3.48408 5.87998 4.68203 4.68203C5.88281 3.48408 7.47441 2.82422 9.16797 2.82422C10.8615 2.82422 12.456 3.48125 13.6539 4.68203C14.8519 5.88281 15.5117 7.47441 15.5117 9.16797C15.5117 10.8615 14.8519 12.456 13.6539 13.6539Z" fill="black" fill-opacity="0.55"/>
</svg>
