<svg width="18" height="19" viewBox="0 0 18 19" fill="none" xmlns="http://www.w3.org/2000/svg">
<path d="M10.125 15.5C10.125 15.5 10.875 15.5 11.625 17C11.625 17 14.0074 13.25 16.125 12.5" stroke="currentColor" stroke-width="1.5" stroke-linecap="round" stroke-linejoin="round"/>
<path d="M5.25 12.5H8.25M5.25 8.75H11.25" stroke="currentColor" stroke-width="1.5" stroke-linecap="round"/>
<path d="M4.875 3.125C3.70815 3.16 3.01246 3.28988 2.53108 3.7717C1.87207 4.43133 1.87207 5.49298 1.87207 7.61627V12.4958C1.87207 14.6191 1.87207 15.6808 2.53108 16.3404C3.19009 17 4.25076 17 6.37207 17H8.24708M11.6192 3.125C12.786 3.16 13.4817 3.28988 13.9631 3.77171C14.6221 4.43133 14.6221 5.49298 14.6221 7.61627V10.625" stroke="currentColor" stroke-width="1.5" stroke-linecap="round"/>
<path d="M4.87207 3.3125C4.87207 2.58763 5.4597 2 6.18457 2H10.3096C11.0345 2 11.6221 2.58763 11.6221 3.3125C11.6221 4.03737 11.0345 4.625 10.3096 4.625H6.18457C5.4597 4.625 4.87207 4.03737 4.87207 3.3125Z" stroke="currentColor" stroke-width="1.5" stroke-linejoin="round"/>
</svg>
