<svg width="18" height="19" viewBox="0 0 18 19" fill="none" xmlns="http://www.w3.org/2000/svg">
<path d="M2.625 7.52631C2.625 4.92118 2.625 3.61862 3.39385 2.80931C4.16269 2 5.40013 2 7.875 2H10.125C12.5998 2 13.8373 2 14.6062 2.80931C15.375 3.61862 15.375 4.92118 15.375 7.52631V11.4737C15.375 14.0788 15.375 15.3814 14.6062 16.1907C13.8373 17 12.5998 17 10.125 17H7.875C5.40013 17 4.16269 17 3.39385 16.1907C2.625 15.3814 2.625 14.0788 2.625 11.4737V7.52631Z" stroke="black" stroke-width="1.125" stroke-linecap="round" stroke-linejoin="round"/>
<path d="M6 2L6.06165 2.3699C6.21131 3.26783 6.28613 3.71679 6.60085 3.9834C6.91556 4.25 7.37071 4.25 8.28105 4.25H9.71895C10.6293 4.25 11.0845 4.25 11.3992 3.9834C11.7139 3.71679 11.7887 3.26783 11.9383 2.3699L12 2" stroke="black" stroke-width="1.125" stroke-linecap="round" stroke-linejoin="round"/>
<path d="M6 12.5H9M6 8.75H12" stroke="black" stroke-width="1.125" stroke-linecap="round"/>
</svg>
