<svg width="18" height="18" viewBox="0 0 18 18" fill="none" xmlns="http://www.w3.org/2000/svg">
<path d="M5.99805 12H8.99801M5.99805 8.25H11.998" stroke="currentColor" stroke-width="1.25" stroke-linecap="round"/>
<path d="M5.625 2.625C4.45815 2.66 3.76246 2.78988 3.28108 3.2717C2.62207 3.93133 2.62207 4.99298 2.62207 7.11627V11.9958C2.62207 14.1191 2.62207 15.1808 3.28108 15.8404C3.94009 16.5 5.00076 16.5 7.12207 16.5H10.8721C12.9934 16.5 14.054 16.5 14.7131 15.8404C15.3721 15.1808 15.3721 14.1191 15.3721 11.9958V7.11627C15.3721 4.99298 15.3721 3.93133 14.7131 3.27171C14.2317 2.78988 13.536 2.66 12.3692 2.625" stroke="currentColor" stroke-width="1.25"/>
<path d="M5.62207 2.8125C5.62207 2.08763 6.2097 1.5 6.93457 1.5H11.0596C11.7845 1.5 12.3721 2.08763 12.3721 2.8125C12.3721 3.53737 11.7845 4.125 11.0596 4.125H6.93457C6.2097 4.125 5.62207 3.53737 5.62207 2.8125Z" stroke="currentColor" stroke-width="1.25" stroke-linejoin="round"/>
</svg>
