<svg width="18" height="19" viewBox="0 0 18 19" fill="none" xmlns="http://www.w3.org/2000/svg">
<path d="M9.375 17H7.125C4.65013 17 3.41269 17 2.64385 16.1907C1.875 15.3814 1.875 14.0788 1.875 11.4737V7.52631C1.875 4.92118 1.875 3.61862 2.64385 2.80931C3.41269 2 4.65013 2 7.125 2H9.375C11.8498 2 13.0873 2 13.8562 2.80931C14.625 3.61862 14.625 4.92118 14.625 7.52631V9.875" stroke="black" stroke-width="1.5" stroke-linecap="round" stroke-linejoin="round"/>
<path d="M16.5 12.5L14.25 14.75M14.25 14.75L12 17M14.25 14.75L16.5 17M14.25 14.75L12 12.5" stroke="black" stroke-width="1.5" stroke-linecap="round"/>
<path d="M5.25 2L5.31165 2.3699C5.46131 3.26783 5.53613 3.71679 5.85085 3.9834C6.16556 4.25 6.62071 4.25 7.53105 4.25H8.96895C9.8793 4.25 10.3345 4.25 10.6492 3.9834C10.9639 3.71679 11.0387 3.26783 11.1883 2.3699L11.25 2" stroke="black" stroke-width="1.5" stroke-linecap="round" stroke-linejoin="round"/>
<path d="M5.25 12.5H8.25M5.25 8.75H11.25" stroke="black" stroke-width="1.5" stroke-linecap="round"/>
</svg>
