<svg width="18" height="19" viewBox="0 0 18 19" fill="none" xmlns="http://www.w3.org/2000/svg">
<path d="M3.81052 11.9723C2.89681 12.5251 0.501132 13.6539 1.96026 15.0665C2.67303 15.7565 3.46688 16.25 4.46494 16.25H10.1601C11.1581 16.25 11.952 15.7565 12.6647 15.0665C14.1238 13.6539 11.7282 12.5251 10.8145 11.9723C8.67188 10.6759 5.95314 10.6759 3.81052 11.9723Z" stroke="currentColor" stroke-width="1.5" stroke-linecap="round" stroke-linejoin="round"/>
<path d="M10.125 5.75C10.125 7.40686 8.78183 8.75 7.125 8.75C5.46814 8.75 4.125 7.40686 4.125 5.75C4.125 4.09314 5.46814 2.75 7.125 2.75C8.78183 2.75 10.125 4.09314 10.125 5.75Z" stroke="currentColor" stroke-width="1.5"/>
<path d="M12.75 4.25H16.5" stroke="currentColor" stroke-width="1.125" stroke-linecap="round" stroke-linejoin="round"/>
<path d="M12.75 6.5H16.5" stroke="currentColor" stroke-width="1.125" stroke-linecap="round" stroke-linejoin="round"/>
<path d="M15 8.75H16.5" stroke="currentColor" stroke-width="1.125" stroke-linecap="round" stroke-linejoin="round"/>
</svg>
