<svg width="18" height="18" viewBox="0 0 18 18" fill="none" xmlns="http://www.w3.org/2000/svg">
<path d="M9 10.5349C7.34453 10.3803 5.64794 10.739 4.18318 11.6112C3.1221 12.243 0.340025 13.5331 2.0345 15.1474C2.86223 15.936 3.78412 16.5 4.94315 16.5H9.75" stroke="currentColor" stroke-width="1.125" stroke-linecap="round" stroke-linejoin="round"/>
<path d="M11.625 4.875C11.625 6.73896 10.114 8.25 8.25 8.25C6.38604 8.25 4.875 6.73896 4.875 4.875C4.875 3.01104 6.38604 1.5 8.25 1.5C10.114 1.5 11.625 3.01104 11.625 4.875Z" stroke="currentColor" stroke-width="1.125"/>
<path d="M16.5 13.125V11.25C15 11.25 13.875 10.5 13.875 10.5C13.875 10.5 12.75 11.25 11.25 11.25V13.125C11.25 15.75 13.875 16.5 13.875 16.5C13.875 16.5 16.5 15.75 16.5 13.125Z" stroke="currentColor" stroke-width="1.125" stroke-linecap="round" stroke-linejoin="round"/>
</svg>
