<svg width="19" height="19" viewBox="0 0 19 19" fill="none" xmlns="http://www.w3.org/2000/svg">
<path d="M16.0805 14C16.6425 14 17.0895 13.6464 17.4908 13.1518C18.3124 12.1396 16.9635 11.3306 16.449 10.9344C15.926 10.5317 15.342 10.3036 14.75 10.25M14 8.75C15.0355 8.75 15.875 7.91053 15.875 6.875C15.875 5.83947 15.0355 5 14 5" stroke="currentColor" stroke-width="1.5" stroke-linecap="round"/>
<path d="M2.91947 14C2.35749 14 1.9105 13.6464 1.50916 13.1518C0.687568 12.1396 2.0365 11.3306 2.55098 10.9344C3.07398 10.5317 3.65794 10.3036 4.25 10.25M4.625 8.75C3.58947 8.75 2.75 7.91053 2.75 6.875C2.75 5.83947 3.58947 5 4.625 5" stroke="currentColor" stroke-width="1.5" stroke-linecap="round"/>
<path d="M6.56285 11.8334C5.79652 12.3073 3.78724 13.2748 5.01103 14.4855C5.60884 15.077 6.27464 15.5 7.11172 15.5H11.8883C12.7254 15.5 13.3912 15.077 13.989 14.4855C15.2128 13.2748 13.2035 12.3073 12.4372 11.8334C10.6401 10.7222 8.35987 10.7222 6.56285 11.8334Z" stroke="currentColor" stroke-width="1.5" stroke-linecap="round" stroke-linejoin="round"/>
<path d="M12.125 6.125C12.125 7.57475 10.9498 8.75 9.50002 8.75C8.05027 8.75 6.875 7.57475 6.875 6.125C6.875 4.67525 8.05027 3.5 9.50002 3.5C10.9498 3.5 12.125 4.67525 12.125 6.125Z" stroke="currentColor" stroke-width="1.5"/>
</svg>
