<svg width="25" height="24" viewBox="0 0 25 24" fill="none" xmlns="http://www.w3.org/2000/svg">
<path fill-rule="evenodd" clip-rule="evenodd" d="M12.5572 1.75C14.7479 1.74999 16.4686 1.74998 17.812 1.93059C19.1886 2.11568 20.2809 2.50271 21.1391 3.36091C21.9973 4.21911 22.3843 5.31137 22.5694 6.68802C22.75 8.03144 22.75 9.7521 22.75 11.9428V12.0572C22.75 14.2479 22.75 15.9686 22.5694 17.312C22.3843 18.6886 21.9973 19.7809 21.1391 20.6391C20.2809 21.4973 19.1886 21.8843 17.812 22.0694C16.4686 22.25 14.7479 22.25 12.5572 22.25H12.4428C10.2521 22.25 8.53144 22.25 7.18802 22.0694C5.81137 21.8843 4.71911 21.4973 3.86091 20.6391C3.00272 19.7809 2.61568 18.6886 2.43059 17.312C2.24998 15.9686 2.24999 14.2479 2.25 12.0572V11.9428C2.24999 9.75212 2.24998 8.03144 2.43059 6.68802C2.61568 5.31137 3.00272 4.21911 3.86091 3.36091C4.71911 2.50271 5.81137 2.11568 7.18802 1.93059C8.53143 1.74998 10.2521 1.74999 12.4428 1.75H12.5572ZM17 12C17 14.4853 14.9853 16.5 12.5 16.5C10.0147 16.5 8 14.4853 8 12C8 9.51472 10.0147 7.5 12.5 7.5C14.9853 7.5 17 9.51472 17 12ZM18.0123 7.5C18.5621 7.5 19.0078 7.05229 19.0078 6.5C19.0078 5.94772 18.5621 5.5 18.0123 5.5H18.0033C17.4535 5.5 17.0078 5.94772 17.0078 6.5C17.0078 7.05228 17.4535 7.5 18.0033 7.5H18.0123Z" fill="currentColor" fill-opacity="0.72"/>
</svg>
