<svg width="18" height="19" viewBox="0 0 18 19" fill="none" xmlns="http://www.w3.org/2000/svg">
<path d="M12.901 2H5.09898C4.00566 2 3.04642 2.73853 3.00261 3.80266C2.94748 5.14159 3.88914 6.03066 4.87817 6.86532C6.24637 8.01995 6.93047 8.5973 7.00222 9.3281C7.01345 9.44247 7.01345 9.55753 7.00222 9.6719C6.93047 10.4027 6.24637 10.9801 4.87817 12.1347C3.8619 12.9923 2.94463 13.7896 3.00261 15.1973C3.04642 16.2615 4.00566 17 5.09898 17H12.901C13.9942 17 14.9535 16.2615 14.9973 15.1973C15.0322 14.3501 14.7182 13.5065 14.0513 12.92C13.7473 12.6525 13.4316 12.3961 13.1218 12.1347C11.7535 10.9801 11.0695 10.4027 10.9977 9.6719C10.9864 9.55753 10.9864 9.44247 10.9977 9.3281C11.0695 8.5973 11.7535 8.01995 13.1218 6.86532C14.1274 6.01668 15.0546 5.19357 14.9973 3.80266C14.9535 2.73853 13.9942 2 12.901 2Z" stroke="currentColor" stroke-width="1.5"/>
<path d="M6.75 16.7286C6.75 16.3972 6.75 16.2314 6.8157 16.0866C6.82613 16.0636 6.83774 16.0411 6.85049 16.0192C6.93076 15.8818 7.06658 15.7847 7.33824 15.5906C8.09287 15.0516 8.47013 14.782 8.8989 14.7534C8.96625 14.7489 9.03375 14.7489 9.1011 14.7534C9.52987 14.782 9.90713 15.0516 10.6618 15.5906C10.9334 15.7847 11.0693 15.8818 11.1495 16.0192C11.1623 16.0411 11.1739 16.0636 11.1843 16.0866C11.25 16.2314 11.25 16.3972 11.25 16.7286V17H6.75V16.7286Z" stroke="currentColor" stroke-width="1.5" stroke-linecap="round"/>
<path d="M6.75 2.27142C6.75 2.60285 6.75 2.7686 6.8157 2.91342C6.82613 2.93645 6.83774 2.95895 6.85049 2.98077C6.93076 3.11825 7.06658 3.2153 7.33824 3.4094C8.09287 3.94842 8.47013 4.21797 8.8989 4.24662C8.96625 4.25113 9.03375 4.25113 9.1011 4.24662C9.52987 4.21797 9.90713 3.94842 10.6618 3.4094C10.9334 3.2153 11.0693 3.11825 11.1495 2.98077C11.1623 2.95895 11.1739 2.93645 11.1843 2.91342C11.25 2.7686 11.25 2.60285 11.25 2.27142V2H6.75V2.27142Z" stroke="currentColor" stroke-width="1.5" stroke-linecap="round"/>
</svg>
