<svg width="25" height="24" viewBox="0 0 25 24" fill="none" xmlns="http://www.w3.org/2000/svg">
<path d="M2.8569 2.78113C3.02359 2.45513 3.35886 2.25 3.725 2.25H8.6C8.91308 2.25 9.20711 2.40034 9.39041 2.65415L14.0354 9.08571L20.5856 2.53557C20.9663 2.15481 21.5837 2.15481 21.9644 2.53557C22.3452 2.91633 22.3452 3.53367 21.9644 3.91443L15.1919 10.687L22.0654 20.2041C22.2798 20.501 22.3098 20.8929 22.1431 21.2189C21.9764 21.5449 21.6411 21.75 21.275 21.75H16.4C16.0869 21.75 15.7929 21.5997 15.6096 21.3459L10.9646 14.9143L4.41443 21.4644C4.03367 21.8452 3.41634 21.8452 3.03557 21.4644C2.65481 21.0837 2.65481 20.4663 3.03557 20.0856L9.80811 13.313L2.93459 3.79585C2.72022 3.49903 2.69021 3.10713 2.8569 2.78113Z" fill="currentColor" fill-opacity="0.72"/>
</svg>
