<svg width="18" height="19" viewBox="0 0 18 19" fill="none" xmlns="http://www.w3.org/2000/svg">
<path d="M5.26074 12.5022H8.26076M5.26074 8.75397H11.2608" stroke="currentColor" stroke-width="1.5" stroke-linecap="round"/>
<path d="M7.51074 16.9999H8.26074" stroke="currentColor" stroke-width="1.5" stroke-linecap="round"/>
<path d="M5.63328 16.9999C4.75456 16.9812 4.15456 16.925 3.57331 16.7563C2.78634 16.5502 2.21194 15.8568 2.04331 14.8822C1.82956 13.9639 1.90456 11.6963 1.88577 8.99765C1.88733 6.90406 1.79205 4.8934 2.12955 3.75022C2.3358 3.3754 2.50455 2.00732 5.29831 2.02606C5.76706 2.00732 10.7358 1.96984 11.5233 2.0448C14.1483 2.10103 14.4108 3.45036 14.5608 4.72474C14.6559 5.66177 14.6358 7.16104 14.6358 8.75398M5.26081 2.00732C5.48581 3.22547 5.46706 4.01258 6.29206 4.19999C6.64831 4.25621 7.46228 4.25471 8.3358 4.25621C9.1155 4.25755 9.9108 4.26459 10.2671 4.18125C11.1483 3.9751 11.0546 2.88814 11.2796 2.00732" stroke="currentColor" stroke-width="1.5" stroke-linecap="round"/>
<path d="M13.709 11.284C12.6784 12.3335 10.6923 14.2076 10.6923 14.3388C10.5321 14.5612 10.3924 15.0134 10.2987 15.6506C10.1811 16.2413 10.0401 16.7563 10.2051 16.9063C10.37 17.0562 10.9909 16.9298 11.6478 16.7938C12.1725 16.7376 12.6597 16.5502 12.9033 16.3628C13.2593 16.0478 15.6764 13.6079 15.9575 13.2893C16.1636 13.0082 16.1823 12.4834 16.0024 12.1648C15.9012 11.94 15.2642 11.3402 15.0581 11.1716C14.6833 10.9467 14.1587 10.9092 13.709 11.284Z" stroke="currentColor" stroke-width="1.5" stroke-linecap="round"/>
</svg>
