<svg width="29" height="29" viewBox="0 0 29 29" fill="none" xmlns="http://www.w3.org/2000/svg">
<path d="M4.44336 11.2918C4.44336 7.23937 4.44336 5.21317 5.63934 3.95424C6.83532 2.69531 8.76022 2.69531 12.61 2.69531H16.11C19.9598 2.69531 21.8847 2.69531 23.0807 3.95424C24.2767 5.21317 24.2767 7.23937 24.2767 11.2918V17.4322C24.2767 21.4846 24.2767 23.5107 23.0807 24.7697C21.8847 26.0286 19.9598 26.0286 16.11 26.0286H12.61C8.76022 26.0286 6.83532 26.0286 5.63934 24.7697C4.44336 23.5107 4.44336 21.4846 4.44336 17.4322V11.2918Z" stroke="#02C644" stroke-width="2" stroke-linecap="round" stroke-linejoin="round"/>
<path d="M9.69336 2.69531L9.78926 3.27071C10.0221 4.66749 10.1385 5.36588 10.628 5.7806C11.1176 6.19531 11.8256 6.19531 13.2417 6.19531H15.4784C16.8945 6.19531 17.6025 6.19531 18.0921 5.7806C18.5816 5.36588 18.698 4.66749 18.9308 3.27071L19.0267 2.69531" stroke="#02C644" stroke-width="2" stroke-linecap="round" stroke-linejoin="round"/>
<path d="M9.69336 19.0286H14.36M9.69336 13.1953H19.0267" stroke="#02C644" stroke-width="2" stroke-linecap="round"/>
</svg>
