<svg width="23" height="20" viewBox="0 0 23 20" fill="none" xmlns="http://www.w3.org/2000/svg">
<path d="M14.2041 17.6345L11.5442 14.6103C10.2274 13.1131 10.0714 12.4552 10.1581 12.3134L11.1564 11.5094L15.2027 8.3444C15.529 8.0892 15.5866 7.61786 15.3314 7.29159C15.0762 6.96533 14.6048 6.90772 14.2785 7.16292L10.228 10.3311L9.00989 11.3253C8.72553 11.6305 8.54418 12.1524 8.74197 12.8946C8.92654 13.5872 9.44427 14.5026 10.5466 15.7593L10.1395 16.5622C9.8765 16.9277 9.6324 17.2671 9.40771 17.4997C9.18445 17.7308 8.77877 18.0705 8.21374 17.9581C7.65614 17.8472 7.40592 17.3862 7.28203 17.0904C7.15621 16.7899 7.04964 16.3824 6.93402 15.9404L6.43252 14.0239C6.15396 12.9594 6.05777 12.6534 5.87651 12.4282C5.85363 12.3998 5.8298 12.3723 5.80509 12.3459C5.61372 12.141 5.34345 12.0149 4.3535 11.6181L4.29927 11.5963C3.32368 11.2053 2.52006 10.8832 1.95798 10.5667C1.41344 10.2601 0.8254 9.8144 0.75775 9.0623C0.74724 8.9454 0.74742 8.8278 0.75829 8.7109C0.82825 7.95901 1.41775 7.51516 1.96325 7.21037C2.52632 6.89576 3.33094 6.57633 4.30773 6.18854L16.2918 1.43052C17.5177 0.94379 18.52 0.54579 19.3076 0.36434C20.1106 0.17935 20.9401 0.15976 21.5901 0.76101C22.2273 1.35039 22.3036 2.18068 22.2242 3.01747C22.1454 3.8477 21.8864 4.92742 21.5669 6.2593L19.1472 16.3463C18.9436 17.1953 18.7717 17.9121 18.5655 18.4321C18.3573 18.9575 18.0233 19.5216 17.3484 19.7001C16.6654 19.8807 16.1009 19.544 15.6719 19.1809C15.2505 18.8243 14.7699 18.2779 14.2041 17.6345Z" fill="currentColor" fill-opacity="0.72"/>
</svg>
