<svg width="16" height="16" viewBox="0 0 16 16" fill="none" xmlns="http://www.w3.org/2000/svg">
<path d="M7.98994 10.2722L10.1509 12.7291C10.9515 13.6393 11.3518 14.0944 11.7708 13.9836C12.1898 13.8728 12.3335 13.2739 12.6209 12.0759L14.2149 5.4306C14.6575 3.58555 14.8788 2.66303 14.3869 2.208C13.895 1.75298 13.0423 2.0915 11.3371 2.76855L3.42552 5.90966C2.06163 6.45116 1.37968 6.72193 1.33639 7.1872C1.33196 7.2348 1.33188 7.28273 1.33617 7.33033C1.37804 7.7958 2.05915 8.06887 3.42138 8.61487C4.0386 8.86227 4.34721 8.986 4.56848 9.22293C4.59336 9.24953 4.61728 9.27713 4.6402 9.3056C4.84406 9.55893 4.93107 9.8914 5.10506 10.5563L5.4307 11.8007C5.60001 12.4477 5.68467 12.7712 5.9064 12.8153C6.12812 12.8594 6.32118 12.5911 6.70728 12.0546L7.98994 10.2722ZM7.98994 10.2722L7.77808 10.0514C7.53694 9.80006 7.41641 9.67447 7.41641 9.51833C7.41641 9.3622 7.53694 9.23653 7.77808 8.9852L10.1601 6.50273" stroke="currentColor" stroke-width="1.5" stroke-linecap="round" stroke-linejoin="round"/>
</svg>
