<svg width="16" height="16" viewBox="0 0 16 16" fill="none" xmlns="http://www.w3.org/2000/svg">
<path d="M1.33301 8.33333C1.33301 7.59693 1.92996 7 2.66634 7C3.77091 7 4.66634 7.8954 4.66634 9V11.6667C4.66634 12.7713 3.77091 13.6667 2.66634 13.6667C1.92996 13.6667 1.33301 13.0697 1.33301 12.3333V8.33333Z" stroke="currentColor" stroke-width="1.5" stroke-linecap="round" stroke-linejoin="round"/>
<path d="M10.3185 5.20385L10.1409 5.77723C9.99548 6.24708 9.92275 6.482 9.97868 6.66754C10.0239 6.81761 10.1233 6.94701 10.2587 7.03214C10.426 7.13734 10.6791 7.13734 11.1854 7.13734H11.4547C13.1681 7.13734 14.0248 7.13734 14.4295 7.64454C14.4757 7.70248 14.5168 7.76414 14.5524 7.82881C14.8637 8.39441 14.5098 9.15641 13.802 10.6804C13.1525 12.0789 12.8277 12.7782 12.2247 13.1898C12.1663 13.2296 12.1063 13.2672 12.0449 13.3024C11.41 13.6663 10.6235 13.6663 9.05028 13.6663H8.70908C6.80315 13.6663 5.8502 13.6663 5.25811 13.0927C4.66602 12.5189 4.66602 11.5956 4.66602 9.74894V9.09987C4.66602 8.12941 4.66602 7.64421 4.83824 7.20007C5.01047 6.75594 5.34025 6.39077 5.99981 5.66042L8.72742 2.64005C8.79582 2.5643 8.83002 2.52642 8.86022 2.50018C9.14168 2.2552 9.57615 2.28277 9.82228 2.56124C9.84868 2.59107 9.87748 2.63295 9.93508 2.7167C10.0252 2.84771 10.0703 2.91321 10.1096 2.97811C10.4612 3.55909 10.5676 4.24925 10.4065 4.90444C10.3885 4.97762 10.3652 5.05308 10.3185 5.20385Z" stroke="currentColor" stroke-width="1.5" stroke-linecap="round" stroke-linejoin="round"/>
</svg>
