<svg width="25" height="24" viewBox="0 0 25 24" fill="none" xmlns="http://www.w3.org/2000/svg">
<path d="M10.581 22C13.8948 22 16.581 19.3137 16.581 16V8.24537C17.5817 9.04749 18.7792 9.61412 20.0896 9.86122C20.4399 9.92728 20.6151 9.96032 20.8313 9.90446C21.0881 9.83809 21.3733 9.6016 21.4861 9.36157C21.581 9.15952 21.581 8.93968 21.581 8.5C21.581 8.04137 21.581 7.81205 21.531 7.65983C21.4481 7.4079 21.3763 7.31049 21.16 7.15694C21.0294 7.06416 20.7206 6.96876 20.1031 6.77796C18.5303 6.29199 17.2891 5.05079 16.8031 3.47798C16.6123 2.86045 16.5169 2.55169 16.4241 2.42104C16.2706 2.20479 16.1732 2.13294 15.9212 2.05007C15.769 2 15.5397 2 15.081 2C14.6151 2 14.3821 2 14.1984 2.07612C13.9533 2.17761 13.7587 2.37229 13.6572 2.61732C13.581 2.80109 13.581 3.03406 13.581 3.5V16C13.581 17.6569 12.2379 19 10.581 19C8.9242 19 7.58105 17.6569 7.58105 16C7.58105 14.8644 8.21206 13.8761 9.14259 13.3667C9.83369 12.9884 10.1793 12.7992 10.276 12.7057C10.4667 12.5214 10.4754 12.5068 10.5455 12.251C10.581 12.1212 10.581 11.9141 10.581 11.5C10.581 11.0747 10.581 10.8621 10.4793 10.6541C10.3627 10.4159 10.045 10.1689 9.78534 10.1147C9.5587 10.0674 9.40454 10.1067 9.09623 10.1851C6.50069 10.8459 4.58105 13.1988 4.58105 16C4.58105 19.3137 7.26734 22 10.581 22Z" fill="currentColor" fill-opacity="0.72"/>
</svg>
