<svg width="10" height="11" viewBox="0 0 10 11" fill="none" xmlns="http://www.w3.org/2000/svg">
<g clip-path="url(#clip0_2_24408)">
<path d="M6.67687 1.60792L6.33347 2.50415H3.66743L3.22026 1.33622C3.16932 1.20037 3.23536 1.04188 3.37309 1.00226C4.02026 0.813579 4.97687 1.57207 6.37875 1.2683C6.57875 1.2249 6.75046 1.41547 6.67687 1.60792ZM5.00045 5.1466C4.10985 5.1466 3.38535 5.8711 3.38535 6.76171C3.38535 7.65232 4.10985 8.37681 5.00045 8.37681C5.89106 8.37681 6.61556 7.65232 6.61556 6.76171C6.61556 5.8711 5.89106 5.1466 5.00045 5.1466ZM5.6296 7.47165C5.51886 7.52601 5.39992 7.55245 5.28191 7.55245C5.07674 7.55245 4.87433 7.47257 4.7225 7.32074C4.59244 7.19068 4.52065 7.02591 4.50036 6.85605H4.31852C4.26637 6.85605 4.22418 6.81385 4.22418 6.76171C4.22418 6.70956 4.26637 6.66737 4.31852 6.66737H4.50036C4.52066 6.4975 4.59246 6.33271 4.7225 6.20267C4.94785 5.97742 5.28366 5.90924 5.57902 6.02901C5.6273 6.04863 5.65051 6.10363 5.63098 6.15191C5.61117 6.20018 5.55617 6.22322 5.50808 6.20387C5.28338 6.11275 5.02735 6.16453 4.8559 6.33607C4.76262 6.42935 4.70805 6.54605 4.68893 6.66737H5.27371C5.32585 6.66737 5.36805 6.70956 5.36805 6.76171C5.36805 6.81385 5.32585 6.85605 5.27371 6.85605H4.68893C4.70806 6.97735 4.76265 7.09404 4.8559 7.18734C5.03813 7.36939 5.31562 7.41591 5.5465 7.30232C5.59339 7.2791 5.64977 7.29873 5.67271 7.34543C5.69565 7.39224 5.6764 7.44871 5.6296 7.47165Z" fill="white"/>
<path d="M6.42217 2.69238H5.15991C5.2467 2.82823 5.32218 3.05653 5.25991 3.40182C5.25237 3.45275 5.20331 3.48672 5.15048 3.47728C5.09954 3.46974 5.06557 3.42068 5.07501 3.36786C5.14104 2.9905 5.02029 2.79804 4.94671 2.72068C4.84482 2.81879 4.63727 3.10936 4.75614 3.76219C4.76369 3.81314 4.72972 3.8622 4.67878 3.87163C4.67312 3.87163 4.66746 3.87352 4.6618 3.87352C4.6184 3.87352 4.57878 3.84143 4.56935 3.79426C4.46557 3.21314 4.59765 2.87351 4.72595 2.69238H3.57879C2.34671 3.66407 1.48633 5.71879 1.48633 7.19427C1.48633 9.18861 3.05992 10.0282 5.00142 10.0282C6.94104 10.0282 8.51463 9.18861 8.51463 7.19427C8.51463 5.71879 7.65425 3.66407 6.42217 2.69238ZM5.00048 8.56505C4.00586 8.56505 3.19669 7.75588 3.19669 6.76126C3.19669 5.76664 4.00586 4.95748 5.00048 4.95748C5.9951 4.95748 6.80426 5.76664 6.80426 6.76126C6.80426 7.75588 5.9951 8.56505 5.00048 8.56505Z" fill="white"/>
</g>
<defs>
<clipPath id="clip0_2_24408">
<rect width="10" height="10" fill="white" transform="translate(0 0.5)"/>
</clipPath>
</defs>
</svg>
