<svg width="16" height="16" viewBox="0 0 16 16" fill="none" xmlns="http://www.w3.org/2000/svg">
<path d="M4.625 6.66699C4.16438 6.67039 3.88721 6.68453 3.66643 6.74299C2.66162 7.00906 1.97369 7.90959 2.00077 8.92346C2.00862 9.21713 2.12041 9.58006 2.344 10.306C2.88209 12.053 3.78642 13.5696 5.8123 13.9335C6.18469 14.0003 6.60374 14.0003 7.44183 14.0003H8.55817C9.39623 14.0003 9.8153 14.0003 10.1877 13.9335C12.2136 13.5696 13.1179 12.053 13.656 10.306C13.8796 9.58006 13.9914 9.21713 13.9992 8.92346C14.0263 7.90959 13.3384 7.00906 12.3336 6.74299C12.1128 6.68453 11.8356 6.67039 11.375 6.66699" stroke="currentColor" stroke-width="1.5" stroke-linecap="round"/>
<path d="M7.99971 2V9.33333M7.99971 2C8.31191 2 8.54924 2.29207 9.02397 2.8762L9.66637 3.66667M7.99971 2C7.68744 2 7.45011 2.29207 6.97537 2.8762L6.33301 3.66667" stroke="currentColor" stroke-width="1.5" stroke-linecap="round" stroke-linejoin="round"/>
</svg>
