<svg width="36" height="36" viewBox="0 0 36 36" fill="none" xmlns="http://www.w3.org/2000/svg">
<path d="M9.75 30C7.475 30 5.53125 29.2125 3.91875 27.6375C2.30625 26.0625 1.5 24.1375 1.5 21.8625C1.5 19.9125 2.0875 18.175 3.2625 16.65C4.4375 15.125 5.975 14.15 7.875 13.725C8.5 11.425 9.75 9.5625 11.625 8.1375C13.5 6.7125 15.625 6 18 6C20.925 6 23.4063 7.01875 25.4438 9.05625C27.4813 11.0938 28.5 13.575 28.5 16.5C30.225 16.7 31.6563 17.4438 32.7938 18.7313C33.9313 20.0188 34.5 21.525 34.5 23.25C34.5 25.125 33.8438 26.7188 32.5313 28.0312C31.2188 29.3438 29.625 30 27.75 30H19.5C18.675 30 17.9688 29.7063 17.3813 29.1188C16.7938 28.5313 16.5 27.825 16.5 27V19.275L14.1 21.6L12 19.5L18 13.5L24 19.5L21.9 21.6L19.5 19.275V27H27.75C28.8 27 29.6875 26.6375 30.4125 25.9125C31.1375 25.1875 31.5 24.3 31.5 23.25C31.5 22.2 31.1375 21.3125 30.4125 20.5875C29.6875 19.8625 28.8 19.5 27.75 19.5H25.5V16.5C25.5 14.425 24.7688 12.6563 23.3063 11.1938C21.8438 9.73125 20.075 9 18 9C15.925 9 14.1563 9.73125 12.6938 11.1938C11.2313 12.6563 10.5 14.425 10.5 16.5H9.75C8.3 16.5 7.0625 17.0125 6.0375 18.0375C5.0125 19.0625 4.5 20.3 4.5 21.75C4.5 23.2 5.0125 24.4375 6.0375 25.4625C7.0625 26.4875 8.3 27 9.75 27H13.5V30H9.75Z" fill="currentColor"/>
</svg>
