<svg width="22" height="22" viewBox="0 0 22 22" fill="none" xmlns="http://www.w3.org/2000/svg">
<rect x="0.700195" y="0.5" width="21" height="21" rx="2" fill="#02C644"/>
<path d="M13.0054 8.66797V6.61555H17.6746V3.37695H4.71363V6.61555H9.39598V8.66797C5.47324 8.85664 2.52832 9.64414 2.52832 10.5875C2.52832 11.5309 5.46996 12.3134 9.39598 12.507V19.2812H13.0054V12.507C16.9281 12.32 19.873 11.5325 19.873 10.5875C19.873 9.6425 16.9314 8.85664 13.0054 8.66797ZM11.2007 11.8934C6.95309 11.8934 3.50941 11.2372 3.50941 10.4464C3.50941 9.76555 6.01793 9.19461 9.3927 9.04203V11.3602C9.97348 11.3865 10.5772 11.4013 11.1974 11.4013C11.8175 11.4013 12.4246 11.3865 13.0021 11.3602V9.04203C16.3768 9.19461 18.8854 9.76555 18.8854 10.4464C18.8919 11.2454 15.4482 11.8934 11.2007 11.8934Z" fill="white"/>
</svg>
