<svg width="25" height="26" viewBox="0 0 25 26" fill="none" xmlns="http://www.w3.org/2000/svg">
<path d="M20.2491 16.5823C21.2122 15.6263 21.9559 14.6762 22.4418 13.9948C22.7585 13.5507 22.9168 13.3287 22.9168 13C22.9168 12.6714 22.7585 12.4493 22.4418 12.0052C21.0188 10.0098 17.3847 5.70834 12.5002 5.70834C11.5545 5.70834 10.6558 5.86955 9.81086 6.14404M7.02873 7.52857C4.92848 8.94501 3.3774 10.8569 2.55854 12.0052C2.24184 12.4493 2.0835 12.6714 2.0835 13C2.0835 13.3287 2.24184 13.5507 2.55854 13.9948C3.98152 15.9902 7.61556 20.2917 12.5002 20.2917C14.5739 20.2917 16.4221 19.5164 17.9716 18.4715" stroke="currentColor" stroke-width="1.5625" stroke-linecap="round" stroke-linejoin="round"/>
<path d="M10.2686 10.9167C9.71649 11.4687 9.375 12.2316 9.375 13.0741C9.375 14.7591 10.7409 16.125 12.4259 16.125C13.2684 16.125 14.0313 15.7835 14.5833 15.2313" stroke="currentColor" stroke-width="1.5625" stroke-linecap="round"/>
<path d="M3.125 3.625L21.875 22.375" stroke="currentColor" stroke-width="1.5625" stroke-linecap="round" stroke-linejoin="round"/>
</svg>
