<svg width="19" height="19" viewBox="0 0 19 19" fill="none" xmlns="http://www.w3.org/2000/svg">
<path d="M12.5 11C12.5 11.6213 13.0037 12.125 13.625 12.125C14.2463 12.125 14.75 11.6213 14.75 11C14.75 10.3787 14.2463 9.875 13.625 9.875C13.0037 9.875 12.5 10.3787 12.5 11Z" stroke="currentColor" stroke-width="1.5"/>
<path d="M14.675 6.5C14.7242 6.25767 14.75 6.00685 14.75 5.75C14.75 3.67893 13.071 2 11 2C8.92895 2 7.25 3.67893 7.25 5.75C7.25 6.00685 7.27582 6.25767 7.32502 6.5" stroke="currentColor" stroke-width="1.5"/>
<path d="M5.75 6.49493H12.5C14.6213 6.49493 15.6819 6.49493 16.341 7.15426C17 7.81359 17 8.87473 17 10.9971V12.4978C17 14.6202 17 15.6813 16.341 16.3407C15.6819 17 14.6213 17 12.5 17H8C5.17157 17 3.75736 17 2.87868 16.1209C2 15.2418 2 13.8269 2 10.9971V9.4964C2 6.66658 2 5.25169 2.87868 4.37258C3.586 3.66493 4.64032 3.52692 6.5 3.5H8" stroke="currentColor" stroke-width="1.5" stroke-linecap="round"/>
</svg>
