<svg width="20" height="21" viewBox="0 0 20 21" fill="none" xmlns="http://www.w3.org/2000/svg">
<path d="M10 3.22727C9.74242 3.22727 9.52667 3.14 9.35273 2.96545C9.17818 2.79152 9.09091 2.57576 9.09091 2.31818V1.40909C9.09091 1.15152 9.17818 0.935455 9.35273 0.760909C9.52667 0.58697 9.74242 0.5 10 0.5C10.2576 0.5 10.4736 0.58697 10.6482 0.760909C10.8221 0.935455 10.9091 1.15152 10.9091 1.40909V2.31818C10.9091 2.57576 10.8221 2.79152 10.6482 2.96545C10.4736 3.14 10.2576 3.22727 10 3.22727ZM10 20.5C9.74242 20.5 9.52667 20.4127 9.35273 20.2382C9.17818 20.0642 9.09091 19.8485 9.09091 19.5909V18.6818C9.09091 18.4242 9.17818 18.2085 9.35273 18.0345C9.52667 17.86 9.74242 17.7727 10 17.7727C10.2576 17.7727 10.4736 17.86 10.6482 18.0345C10.8221 18.2085 10.9091 18.4242 10.9091 18.6818V19.5909C10.9091 19.8485 10.8221 20.0642 10.6482 20.2382C10.4736 20.4127 10.2576 20.5 10 20.5ZM18.1818 11.4091C17.9242 11.4091 17.7085 11.3218 17.5345 11.1473C17.36 10.9733 17.2727 10.7576 17.2727 10.5C17.2727 10.2424 17.36 10.0264 17.5345 9.85182C17.7085 9.67788 17.9242 9.59091 18.1818 9.59091H19.0909C19.3485 9.59091 19.5642 9.67788 19.7382 9.85182C19.9127 10.0264 20 10.2424 20 10.5C20 10.7576 19.9127 10.9733 19.7382 11.1473C19.5642 11.3218 19.3485 11.4091 19.0909 11.4091H18.1818ZM0.909091 11.4091C0.651515 11.4091 0.435758 11.3218 0.261818 11.1473C0.0872727 10.9733 0 10.7576 0 10.5C0 10.2424 0.0872727 10.0264 0.261818 9.85182C0.435758 9.67788 0.651515 9.59091 0.909091 9.59091H1.81818C2.07576 9.59091 2.29182 9.67788 2.46636 9.85182C2.6403 10.0264 2.72727 10.2424 2.72727 10.5C2.72727 10.7576 2.6403 10.9733 2.46636 11.1473C2.29182 11.3218 2.07576 11.4091 1.81818 11.4091H0.909091ZM15.4545 5.04545C15.2879 4.87879 15.2045 4.6703 15.2045 4.42C15.2045 4.1703 15.2879 3.95455 15.4545 3.77273L15.7727 3.43182C15.9394 3.25 16.1515 3.15909 16.4091 3.15909C16.6667 3.15909 16.8864 3.25 17.0682 3.43182C17.25 3.61364 17.3409 3.83333 17.3409 4.09091C17.3409 4.34848 17.25 4.56818 17.0682 4.75L16.7273 5.06818C16.5455 5.23485 16.3333 5.31818 16.0909 5.31818C15.8485 5.31818 15.6364 5.22727 15.4545 5.04545ZM2.93182 17.5682C2.75 17.3864 2.65909 17.1667 2.65909 16.9091C2.65909 16.6515 2.75 16.4318 2.93182 16.25L3.27273 15.9318C3.45455 15.7652 3.66667 15.6818 3.90909 15.6818C4.15152 15.6818 4.36364 15.7727 4.54545 15.9545C4.71212 16.1212 4.79939 16.3333 4.80727 16.5909C4.81455 16.8485 4.72727 17.0606 4.54545 17.2273L4.22727 17.5682C4.06061 17.75 3.84848 17.8409 3.59091 17.8409C3.33333 17.8409 3.11364 17.75 2.93182 17.5682ZM15.75 17.5682L15.4318 17.2273C15.2652 17.0455 15.1818 16.8333 15.1818 16.5909C15.1818 16.3485 15.2727 16.1364 15.4545 15.9545C15.6212 15.7879 15.8333 15.7006 16.0909 15.6927C16.3485 15.6855 16.5606 15.7727 16.7273 15.9545L17.0682 16.2727C17.25 16.4394 17.3409 16.6515 17.3409 16.9091C17.3409 17.1667 17.25 17.3864 17.0682 17.5682C16.8864 17.75 16.6667 17.8409 16.4091 17.8409C16.1515 17.8409 15.9318 17.75 15.75 17.5682ZM3.27273 5.04545L2.93182 4.72727C2.75 4.56061 2.65909 4.34848 2.65909 4.09091C2.65909 3.83333 2.75 3.61364 2.93182 3.43182C3.11364 3.25 3.33333 3.15909 3.59091 3.15909C3.84848 3.15909 4.06818 3.25 4.25 3.43182L4.56818 3.77273C4.73485 3.95455 4.81818 4.16667 4.81818 4.40909C4.81818 4.65152 4.72727 4.86364 4.54545 5.04545C4.37879 5.21212 4.1703 5.29545 3.92 5.29545C3.6703 5.29545 3.45455 5.21212 3.27273 5.04545ZM10 15.9545C8.48485 15.9545 7.19697 15.4242 6.13636 14.3636C5.07576 13.303 4.54545 12.0152 4.54545 10.5C4.54545 8.98485 5.07576 7.69697 6.13636 6.63636C7.19697 5.57576 8.48485 5.04545 10 5.04545C11.5152 5.04545 12.803 5.57576 13.8636 6.63636C14.9242 7.69697 15.4545 8.98485 15.4545 10.5C15.4545 12.0152 14.9242 13.303 13.8636 14.3636C12.803 15.4242 11.5152 15.9545 10 15.9545Z" fill="white"/>
</svg>
