<svg width="25" height="24" viewBox="0 0 25 24" fill="none" xmlns="http://www.w3.org/2000/svg">
<path fill-rule="evenodd" clip-rule="evenodd" d="M7.19686 3.27174C8.85585 2.93356 10.6415 2.75 12.5001 2.75C14.3587 2.75 16.1444 2.93356 17.8033 3.27174L17.9306 3.29766C19.8252 3.68329 21.0876 3.94024 22.1755 5.33892C23.2517 6.72258 23.2511 8.3272 23.2501 10.8124V13.1876C23.2511 15.6728 23.2517 17.2774 22.1755 18.6611C21.0876 20.0598 19.8252 20.3167 17.9306 20.7023L17.8033 20.7283C16.1444 21.0664 14.3587 21.25 12.5001 21.25C10.6415 21.25 8.85585 21.0664 7.19686 20.7283L7.06958 20.7023C5.17495 20.3167 3.91255 20.0598 2.8247 18.6611C1.74852 17.2774 1.74912 15.6728 1.75005 13.1876V10.8124C1.74912 8.3272 1.74852 6.72258 2.8247 5.33892C3.91255 3.94024 5.17495 3.68329 7.06958 3.29766L7.19686 3.27174ZM11.7946 8.25224C12.3131 8.46986 12.943 8.82163 13.7131 9.25173C13.8145 9.30834 13.9164 9.36458 14.0184 9.42088C14.5218 9.69878 15.0281 9.9783 15.495 10.314C15.9146 10.6157 16.3127 10.9896 16.4445 11.5349C16.5185 11.841 16.5185 12.159 16.4445 12.4651C16.3127 13.0104 15.9146 13.3843 15.495 13.686C15.0281 14.0217 14.5217 14.3013 14.0183 14.5792C13.9163 14.6355 13.8145 14.6917 13.7131 14.7483C12.943 15.1784 12.3132 15.5301 11.7946 15.7478C10.9516 16.1015 10.0577 16.1302 9.323 15.5282C8.86316 15.1514 8.70061 14.6119 8.62929 14.0683C8.45694 12.7544 8.45686 11.2462 8.62929 9.93172C8.70061 9.38806 8.86316 8.84858 9.323 8.47181C10.0577 7.86983 10.9516 7.89845 11.7946 8.25224Z" fill="currentColor" fill-opacity="0.72"/>
</svg>
